<?xml version="1.0" encoding="UTF-8" standalone="no"?><svg xmlns="http://www.w3.org/2000/svg" xmlns:xlink="http://www.w3.org/1999/xlink" clip-rule="evenodd" stroke-miterlimit="10" viewBox="0 0 1920 1080"><desc>SVG generated by Keynote</desc><defs></defs><g transform="matrix(1.00, 0.00, -0.00, -1.00, 0.0, 1080.0)"><g><clipPath id="clip0x608000cb2300"><path d="M 0.0 1080.0 L 1920.0 1080.0 L 1920.0 0.0 L 0.0 0.0 Z M 0.0 1080.0 "></path></clipPath><g clip-path="url(#clip0x608000cb2300)"><image xlink:href="574DCE55A4CF432400CBDDDE1DFDFC9B.jpeg" width="2048.00" height="1536.00" transform="matrix(0.94, 0.00, -0.00, -0.70, 0.0, 1080.0)"></image></g></g><text xml:space="preserve" font-family="HelveticaNeue-UltraLight,Helvetica Neue" font-size="166.0" fill="#525252" transform="matrix(1.00, 0.00, -0.00, -1.00, 691.9, 793.8)">C</text><text xml:space="preserve" font-family="HelveticaNeue-UltraLight,Helvetica Neue" font-size="166.0" fill="#525252" transform="matrix(1.00, 0.00, -0.00, -1.00, 805.6, 793.8)">O</text><text xml:space="preserve" font-family="HelveticaNeue-UltraLight,Helvetica Neue" font-size="166.0" fill="#525252" transform="matrix(1.00, 0.00, -0.00, -1.00, 925.3, 793.8)">D</text><text xml:space="preserve" font-family="HelveticaNeue-UltraLight,Helvetica Neue" font-size="166.0" fill="#525252" transform="matrix(1.00, 0.00, -0.00, -1.00, 1032.8, 793.8)">E</text><text xml:space="preserve" font-family="HelveticaNeue-UltraLight,Helvetica Neue" font-size="166.0" fill="#525252" transform="matrix(1.00, 0.00, -0.00, -1.00, 1122.0, 793.8)">D</text><text xml:space="preserve" font-family="HelveticaNeue-UltraLight,Helvetica Neue" font-size="166.0" fill="#525252" transform="matrix(1.00, 0.00, -0.00, -1.00, 1229.5, 793.8)">A</text><text xml:space="preserve" font-family="HelveticaNeue-UltraLight,Helvetica Neue" font-size="166.0" fill="#525252" transform="matrix(1.00, 0.00, -0.00, -1.00, 1318.8, 793.8)">Y</text><text xml:space="preserve" font-family="HelveticaNeue-UltraLight,Helvetica Neue" font-size="166.0" fill="#525252" transform="matrix(1.00, 0.00, -0.00, -1.00, 1408.2, 793.8)"> </text><text xml:space="preserve" font-family="HelveticaNeue-UltraLight,Helvetica Neue" font-size="166.0" fill="#525252" transform="matrix(1.00, 0.00, -0.00, -1.00, 1454.3, 793.8)">S</text><text xml:space="preserve" font-family="HelveticaNeue-UltraLight,Helvetica Neue" font-size="166.0" fill="#525252" transform="matrix(1.00, 0.00, -0.00, -1.00, 1555.7, 793.8)">F</text><text xml:space="preserve" font-family="HelveticaNeue-UltraLight,Helvetica Neue" font-size="166.0" fill="#525252" transform="matrix(1.00, 0.00, -0.00, -1.00, 1635.6, 793.8)">/</text><text xml:space="preserve" font-family="HelveticaNeue-UltraLight,Helvetica Neue" font-size="166.0" fill="#525252" transform="matrix(1.00, 0.00, -0.00, -1.00, 1690.9, 793.8)">S</text><text xml:space="preserve" font-family="HelveticaNeue-UltraLight,Helvetica Neue" font-size="166.0" fill="#525252" transform="matrix(1.00, 0.00, -0.00, -1.00, 1792.3, 793.8)">V</text><text xml:space="preserve" font-family="HelveticaNeue-Light,Helvetica Neue" font-size="52.0" fill="#525252" transform="matrix(1.00, 0.00, -0.00, -1.00, 949.9, 574.7)">S</text><text xml:space="preserve" font-family="HelveticaNeue-Light,Helvetica Neue" font-size="52.0" fill="#525252" transform="matrix(1.00, 0.00, -0.00, -1.00, 982.7, 574.7)">p</text><text xml:space="preserve" font-family="HelveticaNeue-Light,Helvetica Neue" font-size="52.0" fill="#525252" transform="matrix(1.00, 0.00, -0.00, -1.00, 1012.5, 574.7)">o</text><text xml:space="preserve" font-family="HelveticaNeue-Light,Helvetica Neue" font-size="52.0" fill="#525252" transform="matrix(1.00, 0.00, -0.00, -1.00, 1041.5, 574.7)">t</text><text xml:space="preserve" font-family="HelveticaNeue-Light,Helvetica Neue" font-size="52.0" fill="#525252" transform="matrix(1.00, 0.00, -0.00, -1.00, 1056.8, 574.7)">i</text><text xml:space="preserve" font-family="HelveticaNeue-Light,Helvetica Neue" font-size="52.0" fill="#525252" transform="matrix(1.00, 0.00, -0.00, -1.00, 1066.5, 574.7)">f</text><text xml:space="preserve" font-family="HelveticaNeue-Light,Helvetica Neue" font-size="52.0" fill="#525252" transform="matrix(1.00, 0.00, -0.00, -1.00, 1079.9, 574.7)">y</text><text xml:space="preserve" font-family="HelveticaNeue-Light,Helvetica Neue" font-size="52.0" fill="#525252" transform="matrix(1.00, 0.00, -0.00, -1.00, 1104.0, 574.7)"> </text><text xml:space="preserve" font-family="HelveticaNeue-Light,Helvetica Neue" font-size="52.0" fill="#525252" transform="matrix(1.00, 0.00, -0.00, -1.00, 1118.5, 574.7)">P</text><text xml:space="preserve" font-family="HelveticaNeue-Light,Helvetica Neue" font-size="52.0" fill="#525252" transform="matrix(1.00, 0.00, -0.00, -1.00, 1151.2, 574.7)">l</text><text xml:space="preserve" font-family="HelveticaNeue-Light,Helvetica Neue" font-size="52.0" fill="#525252" transform="matrix(1.00, 0.00, -0.00, -1.00, 1160.8, 574.7)">a</text><text xml:space="preserve" font-family="HelveticaNeue-Light,Helvetica Neue" font-size="52.0" fill="#525252" transform="matrix(1.00, 0.00, -0.00, -1.00, 1187.8, 574.7)">y</text><text xml:space="preserve" font-family="HelveticaNeue-Light,Helvetica Neue" font-size="52.0" fill="#525252" transform="matrix(1.00, 0.00, -0.00, -1.00, 1211.9, 574.7)">l</text><text xml:space="preserve" font-family="HelveticaNeue-Light,Helvetica Neue" font-size="52.0" fill="#525252" transform="matrix(1.00, 0.00, -0.00, -1.00, 1221.5, 574.7)">i</text><text xml:space="preserve" font-family="HelveticaNeue-Light,Helvetica Neue" font-size="52.0" fill="#525252" transform="matrix(1.00, 0.00, -0.00, -1.00, 1231.1, 574.7)">s</text><text xml:space="preserve" font-family="HelveticaNeue-Light,Helvetica Neue" font-size="52.0" fill="#525252" transform="matrix(1.00, 0.00, -0.00, -1.00, 1256.2, 574.7)">t</text><text xml:space="preserve" font-family="HelveticaNeue-Light,Helvetica Neue" font-size="52.0" fill="#525252" transform="matrix(1.00, 0.00, -0.00, -1.00, 1271.6, 574.7)"> </text><text xml:space="preserve" font-family="HelveticaNeue-Light,Helvetica Neue" font-size="52.0" fill="#525252" transform="matrix(1.00, 0.00, -0.00, -1.00, 1286.0, 574.7)">(</text><text xml:space="preserve" font-family="HelveticaNeue-Light,Helvetica Neue" font-size="52.0" fill="#525252" transform="matrix(1.00, 0.00, -0.00, -1.00, 1298.5, 574.7)">c</text><text xml:space="preserve" font-family="HelveticaNeue-Light,Helvetica Neue" font-size="52.0" fill="#525252" transform="matrix(1.00, 0.00, -0.00, -1.00, 1325.5, 574.7)">o</text><text xml:space="preserve" font-family="HelveticaNeue-Light,Helvetica Neue" font-size="52.0" fill="#525252" transform="matrix(1.00, 0.00, -0.00, -1.00, 1354.4, 574.7)">l</text><text xml:space="preserve" font-family="HelveticaNeue-Light,Helvetica Neue" font-size="52.0" fill="#525252" transform="matrix(1.00, 0.00, -0.00, -1.00, 1364.1, 574.7)">l</text><text xml:space="preserve" font-family="HelveticaNeue-Light,Helvetica Neue" font-size="52.0" fill="#525252" transform="matrix(1.00, 0.00, -0.00, -1.00, 1373.7, 574.7)">a</text><text xml:space="preserve" font-family="HelveticaNeue-Light,Helvetica Neue" font-size="52.0" fill="#525252" transform="matrix(1.00, 0.00, -0.00, -1.00, 1400.7, 574.7)">b</text><text xml:space="preserve" font-family="HelveticaNeue-Light,Helvetica Neue" font-size="52.0" fill="#525252" transform="matrix(1.00, 0.00, -0.00, -1.00, 1430.5, 574.7)">o</text><text xml:space="preserve" font-family="HelveticaNeue-Light,Helvetica Neue" font-size="52.0" fill="#525252" transform="matrix(1.00, 0.00, -0.00, -1.00, 1459.4, 574.7)">r</text><text xml:space="preserve" font-family="HelveticaNeue-Light,Helvetica Neue" font-size="52.0" fill="#525252" transform="matrix(1.00, 0.00, -0.00, -1.00, 1475.8, 574.7)">a</text><text xml:space="preserve" font-family="HelveticaNeue-Light,Helvetica Neue" font-size="52.0" fill="#525252" transform="matrix(1.00, 0.00, -0.00, -1.00, 1502.8, 574.7)">t</text><text xml:space="preserve" font-family="HelveticaNeue-Light,Helvetica Neue" font-size="52.0" fill="#525252" transform="matrix(1.00, 0.00, -0.00, -1.00, 1518.2, 574.7)">i</text><text xml:space="preserve" font-family="HelveticaNeue-Light,Helvetica Neue" font-size="52.0" fill="#525252" transform="matrix(1.00, 0.00, -0.00, -1.00, 1527.8, 574.7)">v</text><text xml:space="preserve" font-family="HelveticaNeue-Light,Helvetica Neue" font-size="52.0" fill="#525252" transform="matrix(1.00, 0.00, -0.00, -1.00, 1551.9, 574.7)">e</text><text xml:space="preserve" font-family="HelveticaNeue-Light,Helvetica Neue" font-size="52.0" fill="#525252" transform="matrix(1.00, 0.00, -0.00, -1.00, 1578.9, 574.7)">)</text><text xml:space="preserve" font-family="HelveticaNeue-Light,Helvetica Neue" font-size="52.0" fill="#525252" transform="matrix(1.00, 0.00, -0.00, -1.00, 1591.4, 574.7)">:</text><text xml:space="preserve" font-family="HelveticaNeue-Light,Helvetica Neue" font-size="52.0" fill="#525252" transform="matrix(1.00, 0.00, -0.00, -1.00, 1605.9, 574.7)"> </text><text xml:space="preserve" font-family="HelveticaNeue-Light,Helvetica Neue" font-size="52.0" fill="#525252" transform="matrix(1.00, 0.00, -0.00, -1.00, 990.5, 511.7)">h</text><text xml:space="preserve" font-family="HelveticaNeue-Light,Helvetica Neue" font-size="52.0" fill="#525252" transform="matrix(1.00, 0.00, -0.00, -1.00, 1018.4, 511.7)">t</text><text xml:space="preserve" font-family="HelveticaNeue-Light,Helvetica Neue" font-size="52.0" fill="#525252" transform="matrix(1.00, 0.00, -0.00, -1.00, 1033.8, 511.7)">t</text><text xml:space="preserve" font-family="HelveticaNeue-Light,Helvetica Neue" font-size="52.0" fill="#525252" transform="matrix(1.00, 0.00, -0.00, -1.00, 1049.2, 511.7)">p</text><text xml:space="preserve" font-family="HelveticaNeue-Light,Helvetica Neue" font-size="52.0" fill="#525252" transform="matrix(1.00, 0.00, -0.00, -1.00, 1079.0, 511.7)">:</text><text xml:space="preserve" font-family="HelveticaNeue-Light,Helvetica Neue" font-size="52.0" fill="#525252" transform="matrix(1.00, 0.00, -0.00, -1.00, 1093.5, 511.7)">/</text><text xml:space="preserve" font-family="HelveticaNeue-Light,Helvetica Neue" font-size="52.0" fill="#525252" transform="matrix(1.00, 0.00, -0.00, -1.00, 1110.8, 511.7)">j</text><text xml:space="preserve" font-family="HelveticaNeue-Light,Helvetica Neue" font-size="52.0" fill="#525252" transform="matrix(1.00, 0.00, -0.00, -1.00, 1120.4, 511.7)">.</text><text xml:space="preserve" font-family="HelveticaNeue-Light,Helvetica Neue" font-size="52.0" fill="#525252" transform="matrix(1.00, 0.00, -0.00, -1.00, 1134.9, 511.7)">m</text><text xml:space="preserve" font-family="HelveticaNeue-Light,Helvetica Neue" font-size="52.0" fill="#525252" transform="matrix(1.00, 0.00, -0.00, -1.00, 1178.2, 511.7)">p</text><text xml:space="preserve" font-family="HelveticaNeue-Light,Helvetica Neue" font-size="52.0" fill="#525252" transform="matrix(1.00, 0.00, -0.00, -1.00, 1208.0, 511.7)">/</text><text xml:space="preserve" font-family="HelveticaNeue-Light,Helvetica Neue" font-size="52.0" fill="#525252" transform="matrix(1.00, 0.00, -0.00, -1.00, 1225.4, 511.7)">c</text><text xml:space="preserve" font-family="HelveticaNeue-Light,Helvetica Neue" font-size="52.0" fill="#525252" transform="matrix(1.00, 0.00, -0.00, -1.00, 1252.3, 511.7)">o</text><text xml:space="preserve" font-family="HelveticaNeue-Light,Helvetica Neue" font-size="52.0" fill="#525252" transform="matrix(1.00, 0.00, -0.00, -1.00, 1281.3, 511.7)">d</text><text xml:space="preserve" font-family="HelveticaNeue-Light,Helvetica Neue" font-size="52.0" fill="#525252" transform="matrix(1.00, 0.00, -0.00, -1.00, 1311.1, 511.7)">e</text><text xml:space="preserve" font-family="HelveticaNeue-Light,Helvetica Neue" font-size="52.0" fill="#525252" transform="matrix(1.00, 0.00, -0.00, -1.00, 1338.1, 511.7)">d</text><text xml:space="preserve" font-family="HelveticaNeue-Light,Helvetica Neue" font-size="52.0" fill="#525252" transform="matrix(1.00, 0.00, -0.00, -1.00, 1367.9, 511.7)">a</text><text xml:space="preserve" font-family="HelveticaNeue-Light,Helvetica Neue" font-size="52.0" fill="#525252" transform="matrix(1.00, 0.00, -0.00, -1.00, 1394.9, 511.7)">y</text><text xml:space="preserve" font-family="HelveticaNeue-Light,Helvetica Neue" font-size="52.0" fill="#525252" transform="matrix(1.00, 0.00, -0.00, -1.00, 1419.0, 511.7)">s</text><text xml:space="preserve" font-family="HelveticaNeue-Light,Helvetica Neue" font-size="52.0" fill="#525252" transform="matrix(1.00, 0.00, -0.00, -1.00, 1444.0, 511.7)">p</text><text xml:space="preserve" font-family="HelveticaNeue-Light,Helvetica Neue" font-size="52.0" fill="#525252" transform="matrix(1.00, 0.00, -0.00, -1.00, 1473.9, 511.7)">o</text><text xml:space="preserve" font-family="HelveticaNeue-Light,Helvetica Neue" font-size="52.0" fill="#525252" transform="matrix(1.00, 0.00, -0.00, -1.00, 1502.8, 511.7)">t</text><text xml:space="preserve" font-family="HelveticaNeue-Light,Helvetica Neue" font-size="52.0" fill="#525252" transform="matrix(1.00, 0.00, -0.00, -1.00, 1518.2, 511.7)">i</text><text xml:space="preserve" font-family="HelveticaNeue-Light,Helvetica Neue" font-size="52.0" fill="#525252" transform="matrix(1.00, 0.00, -0.00, -1.00, 1527.8, 511.7)">f</text><text xml:space="preserve" font-family="HelveticaNeue-Light,Helvetica Neue" font-size="52.0" fill="#525252" transform="matrix(1.00, 0.00, -0.00, -1.00, 1541.3, 511.7)">y</text><text xml:space="preserve" font-family="HelveticaNeue-Light,Helvetica Neue" font-size="52.0" fill="#525252" transform="matrix(1.00, 0.00, -0.00, -1.00, 1565.3, 511.7)"> </text><text xml:space="preserve" font-family="HelveticaNeue-Light,Helvetica Neue" font-size="52.0" fill="#525252" transform="matrix(1.00, 0.00, -0.00, -1.00, 1579.8, 511.7)"> </text><text xml:space="preserve" font-family="HelveticaNeue-Light,Helvetica Neue" font-size="52.0" fill="#525252" transform="matrix(1.00, 0.00, -0.00, -1.00, 916.7, 385.7)">S</text><text xml:space="preserve" font-family="HelveticaNeue-Light,Helvetica Neue" font-size="52.0" fill="#525252" transform="matrix(1.00, 0.00, -0.00, -1.00, 949.5, 385.7)">c</text><text xml:space="preserve" font-family="HelveticaNeue-Light,Helvetica Neue" font-size="52.0" fill="#525252" transform="matrix(1.00, 0.00, -0.00, -1.00, 976.5, 385.7)">h</text><text xml:space="preserve" font-family="HelveticaNeue-Light,Helvetica Neue" font-size="52.0" fill="#525252" transform="matrix(1.00, 0.00, -0.00, -1.00, 1004.4, 385.7)">e</text><text xml:space="preserve" font-family="HelveticaNeue-Light,Helvetica Neue" font-size="52.0" fill="#525252" transform="matrix(1.00, 0.00, -0.00, -1.00, 1031.4, 385.7)">d</text><text xml:space="preserve" font-family="HelveticaNeue-Light,Helvetica Neue" font-size="52.0" fill="#525252" transform="matrix(1.00, 0.00, -0.00, -1.00, 1061.2, 385.7)">u</text><text xml:space="preserve" font-family="HelveticaNeue-Light,Helvetica Neue" font-size="52.0" fill="#525252" transform="matrix(1.00, 0.00, -0.00, -1.00, 1089.1, 385.7)">l</text><text xml:space="preserve" font-family="HelveticaNeue-Light,Helvetica Neue" font-size="52.0" fill="#525252" transform="matrix(1.00, 0.00, -0.00, -1.00, 1098.8, 385.7)">e</text><text xml:space="preserve" font-family="HelveticaNeue-Light,Helvetica Neue" font-size="52.0" fill="#525252" transform="matrix(1.00, 0.00, -0.00, -1.00, 1125.7, 385.7)"> </text><text xml:space="preserve" font-family="HelveticaNeue-Light,Helvetica Neue" font-size="52.0" fill="#525252" transform="matrix(1.00, 0.00, -0.00, -1.00, 1140.2, 385.7)">(</text><text xml:space="preserve" font-family="HelveticaNeue-Light,Helvetica Neue" font-size="52.0" fill="#525252" transform="matrix(1.00, 0.00, -0.00, -1.00, 1152.7, 385.7)">i</text><text xml:space="preserve" font-family="HelveticaNeue-Light,Helvetica Neue" font-size="52.0" fill="#525252" transform="matrix(1.00, 0.00, -0.00, -1.00, 1162.4, 385.7)">n</text><text xml:space="preserve" font-family="HelveticaNeue-Light,Helvetica Neue" font-size="52.0" fill="#525252" transform="matrix(1.00, 0.00, -0.00, -1.00, 1190.3, 385.7)">c</text><text xml:space="preserve" font-family="HelveticaNeue-Light,Helvetica Neue" font-size="52.0" fill="#525252" transform="matrix(1.00, 0.00, -0.00, -1.00, 1217.3, 385.7)">l</text><text xml:space="preserve" font-family="HelveticaNeue-Light,Helvetica Neue" font-size="52.0" fill="#525252" transform="matrix(1.00, 0.00, -0.00, -1.00, 1226.9, 385.7)">u</text><text xml:space="preserve" font-family="HelveticaNeue-Light,Helvetica Neue" font-size="52.0" fill="#525252" transform="matrix(1.00, 0.00, -0.00, -1.00, 1254.8, 385.7)">d</text><text xml:space="preserve" font-family="HelveticaNeue-Light,Helvetica Neue" font-size="52.0" fill="#525252" transform="matrix(1.00, 0.00, -0.00, -1.00, 1284.7, 385.7)">i</text><text xml:space="preserve" font-family="HelveticaNeue-Light,Helvetica Neue" font-size="52.0" fill="#525252" transform="matrix(1.00, 0.00, -0.00, -1.00, 1294.3, 385.7)">n</text><text xml:space="preserve" font-family="HelveticaNeue-Light,Helvetica Neue" font-size="52.0" fill="#525252" transform="matrix(1.00, 0.00, -0.00, -1.00, 1322.2, 385.7)">g</text><text xml:space="preserve" font-family="HelveticaNeue-Light,Helvetica Neue" font-size="52.0" fill="#525252" transform="matrix(1.00, 0.00, -0.00, -1.00, 1351.1, 385.7)"> </text><text xml:space="preserve" font-family="HelveticaNeue-Light,Helvetica Neue" font-size="52.0" fill="#525252" transform="matrix(1.00, 0.00, -0.00, -1.00, 1365.6, 385.7)">w</text><text xml:space="preserve" font-family="HelveticaNeue-Light,Helvetica Neue" font-size="52.0" fill="#525252" transform="matrix(1.00, 0.00, -0.00, -1.00, 1404.1, 385.7)">o</text><text xml:space="preserve" font-family="HelveticaNeue-Light,Helvetica Neue" font-size="52.0" fill="#525252" transform="matrix(1.00, 0.00, -0.00, -1.00, 1433.0, 385.7)">r</text><text xml:space="preserve" font-family="HelveticaNeue-Light,Helvetica Neue" font-size="52.0" fill="#525252" transform="matrix(1.00, 0.00, -0.00, -1.00, 1449.4, 385.7)">k</text><text xml:space="preserve" font-family="HelveticaNeue-Light,Helvetica Neue" font-size="52.0" fill="#525252" transform="matrix(1.00, 0.00, -0.00, -1.00, 1475.4, 385.7)">s</text><text xml:space="preserve" font-family="HelveticaNeue-Light,Helvetica Neue" font-size="52.0" fill="#525252" transform="matrix(1.00, 0.00, -0.00, -1.00, 1500.4, 385.7)">h</text><text xml:space="preserve" font-family="HelveticaNeue-Light,Helvetica Neue" font-size="52.0" fill="#525252" transform="matrix(1.00, 0.00, -0.00, -1.00, 1528.3, 385.7)">o</text><text xml:space="preserve" font-family="HelveticaNeue-Light,Helvetica Neue" font-size="52.0" fill="#525252" transform="matrix(1.00, 0.00, -0.00, -1.00, 1557.2, 385.7)">p</text><text xml:space="preserve" font-family="HelveticaNeue-Light,Helvetica Neue" font-size="52.0" fill="#525252" transform="matrix(1.00, 0.00, -0.00, -1.00, 1587.1, 385.7)">s</text><text xml:space="preserve" font-family="HelveticaNeue-Light,Helvetica Neue" font-size="52.0" fill="#525252" transform="matrix(1.00, 0.00, -0.00, -1.00, 1612.1, 385.7)">)</text><text xml:space="preserve" font-family="HelveticaNeue-Light,Helvetica Neue" font-size="52.0" fill="#525252" transform="matrix(1.00, 0.00, -0.00, -1.00, 1624.6, 385.7)">:</text><text xml:space="preserve" font-family="HelveticaNeue-Light,Helvetica Neue" font-size="52.0" fill="#525252" transform="matrix(1.00, 0.00, -0.00, -1.00, 1639.1, 385.7)"> </text><text xml:space="preserve" font-family="HelveticaNeue-Light,Helvetica Neue" font-size="52.0" fill="#525252" transform="matrix(1.00, 0.00, -0.00, -1.00, 1037.1, 322.7)">h</text><text xml:space="preserve" font-family="HelveticaNeue-Light,Helvetica Neue" font-size="52.0" fill="#525252" transform="matrix(1.00, 0.00, -0.00, -1.00, 1065.0, 322.7)">t</text><text xml:space="preserve" font-family="HelveticaNeue-Light,Helvetica Neue" font-size="52.0" fill="#525252" transform="matrix(1.00, 0.00, -0.00, -1.00, 1080.4, 322.7)">t</text><text xml:space="preserve" font-family="HelveticaNeue-Light,Helvetica Neue" font-size="52.0" fill="#525252" transform="matrix(1.00, 0.00, -0.00, -1.00, 1095.8, 322.7)">p</text><text xml:space="preserve" font-family="HelveticaNeue-Light,Helvetica Neue" font-size="52.0" fill="#525252" transform="matrix(1.00, 0.00, -0.00, -1.00, 1125.7, 322.7)">:</text><text xml:space="preserve" font-family="HelveticaNeue-Light,Helvetica Neue" font-size="52.0" fill="#525252" transform="matrix(1.00, 0.00, -0.00, -1.00, 1140.1, 322.7)">/</text><text xml:space="preserve" font-family="HelveticaNeue-Light,Helvetica Neue" font-size="52.0" fill="#525252" transform="matrix(1.00, 0.00, -0.00, -1.00, 1157.4, 322.7)">/</text><text xml:space="preserve" font-family="HelveticaNeue-Light,Helvetica Neue" font-size="52.0" fill="#525252" transform="matrix(1.00, 0.00, -0.00, -1.00, 1174.8, 322.7)">c</text><text xml:space="preserve" font-family="HelveticaNeue-Light,Helvetica Neue" font-size="52.0" fill="#525252" transform="matrix(1.00, 0.00, -0.00, -1.00, 1201.7, 322.7)">o</text><text xml:space="preserve" font-family="HelveticaNeue-Light,Helvetica Neue" font-size="52.0" fill="#525252" transform="matrix(1.00, 0.00, -0.00, -1.00, 1230.7, 322.7)">d</text><text xml:space="preserve" font-family="HelveticaNeue-Light,Helvetica Neue" font-size="52.0" fill="#525252" transform="matrix(1.00, 0.00, -0.00, -1.00, 1260.5, 322.7)">e</text><text xml:space="preserve" font-family="HelveticaNeue-Light,Helvetica Neue" font-size="52.0" fill="#525252" transform="matrix(1.00, 0.00, -0.00, -1.00, 1287.5, 322.7)">d</text><text xml:space="preserve" font-family="HelveticaNeue-Light,Helvetica Neue" font-size="52.0" fill="#525252" transform="matrix(1.00, 0.00, -0.00, -1.00, 1317.3, 322.7)">a</text><text xml:space="preserve" font-family="HelveticaNeue-Light,Helvetica Neue" font-size="52.0" fill="#525252" transform="matrix(1.00, 0.00, -0.00, -1.00, 1344.3, 322.7)">y</text><text xml:space="preserve" font-family="HelveticaNeue-Light,Helvetica Neue" font-size="52.0" fill="#525252" transform="matrix(1.00, 0.00, -0.00, -1.00, 1363.6, 322.7)">.</text><text xml:space="preserve" font-family="HelveticaNeue-Light,Helvetica Neue" font-size="52.0" fill="#525252" transform="matrix(1.00, 0.00, -0.00, -1.00, 1378.1, 322.7)">o</text><text xml:space="preserve" font-family="HelveticaNeue-Light,Helvetica Neue" font-size="52.0" fill="#525252" transform="matrix(1.00, 0.00, -0.00, -1.00, 1407.0, 322.7)">r</text><text xml:space="preserve" font-family="HelveticaNeue-Light,Helvetica Neue" font-size="52.0" fill="#525252" transform="matrix(1.00, 0.00, -0.00, -1.00, 1423.4, 322.7)">g</text><text xml:space="preserve" font-family="HelveticaNeue-Light,Helvetica Neue" font-size="52.0" fill="#525252" transform="matrix(1.00, 0.00, -0.00, -1.00, 1452.3, 322.7)">/</text><text xml:space="preserve" font-family="HelveticaNeue-Light,Helvetica Neue" font-size="52.0" fill="#525252" transform="matrix(1.00, 0.00, -0.00, -1.00, 1469.6, 322.7)">s</text><text xml:space="preserve" font-family="HelveticaNeue-Light,Helvetica Neue" font-size="52.0" fill="#525252" transform="matrix(1.00, 0.00, -0.00, -1.00, 1494.6, 322.7)">v</text><text xml:space="preserve" font-family="HelveticaNeue-Light,Helvetica Neue" font-size="52.0" fill="#525252" transform="matrix(1.00, 0.00, -0.00, -1.00, 1518.7, 322.7)"> </text><text xml:space="preserve" font-family="HelveticaNeue-Light,Helvetica Neue" font-size="52.0" fill="#525252" transform="matrix(1.00, 0.00, -0.00, -1.00, 1533.1, 322.7)"> </text><g><clipPath id="clip0x608000cad8c0"><path d="M 1036.1 315.2 L 1518.7 315.2 L 1518.7 319.8 L 1036.1 319.8 Z M 1036.1 315.2 "></path></clipPath><g clip-path="url(#clip0x608000cad8c0)"><path d="M 439.8 376.2 L 921.4 376.2 " fill="none" stroke="#525252" stroke-width="2.60" transform="matrix(1.00, 0.00, 0.00, -1.00, 597.3, 693.7)"></path></g></g><text xml:space="preserve" font-family="HelveticaNeue-Light,Helvetica Neue" font-size="52.0" fill="#525252" transform="matrix(1.00, 0.00, -0.00, -1.00, 854.1, 196.7)">F</text><text xml:space="preserve" font-family="HelveticaNeue-Light,Helvetica Neue" font-size="52.0" fill="#525252" transform="matrix(1.00, 0.00, -0.00, -1.00, 882.0, 196.7)">a</text><text xml:space="preserve" font-family="HelveticaNeue-Light,Helvetica Neue" font-size="52.0" fill="#525252" transform="matrix(1.00, 0.00, -0.00, -1.00, 909.0, 196.7)">c</text><text xml:space="preserve" font-family="HelveticaNeue-Light,Helvetica Neue" font-size="52.0" fill="#525252" transform="matrix(1.00, 0.00, -0.00, -1.00, 936.0, 196.7)">e</text><text xml:space="preserve" font-family="HelveticaNeue-Light,Helvetica Neue" font-size="52.0" fill="#525252" transform="matrix(1.00, 0.00, -0.00, -1.00, 963.0, 196.7)">b</text><text xml:space="preserve" font-family="HelveticaNeue-Light,Helvetica Neue" font-size="52.0" fill="#525252" transform="matrix(1.00, 0.00, -0.00, -1.00, 992.9, 196.7)">o</text><text xml:space="preserve" font-family="HelveticaNeue-Light,Helvetica Neue" font-size="52.0" fill="#525252" transform="matrix(1.00, 0.00, -0.00, -1.00, 1021.8, 196.7)">o</text><text xml:space="preserve" font-family="HelveticaNeue-Light,Helvetica Neue" font-size="52.0" fill="#525252" transform="matrix(1.00, 0.00, -0.00, -1.00, 1050.7, 196.7)">k</text><text xml:space="preserve" font-family="HelveticaNeue-Light,Helvetica Neue" font-size="52.0" fill="#525252" transform="matrix(1.00, 0.00, -0.00, -1.00, 1076.7, 196.7)"> </text><text xml:space="preserve" font-family="HelveticaNeue-Light,Helvetica Neue" font-size="52.0" fill="#525252" transform="matrix(1.00, 0.00, -0.00, -1.00, 1091.1, 196.7)">G</text><text xml:space="preserve" font-family="HelveticaNeue-Light,Helvetica Neue" font-size="52.0" fill="#525252" transform="matrix(1.00, 0.00, -0.00, -1.00, 1129.7, 196.7)">r</text><text xml:space="preserve" font-family="HelveticaNeue-Light,Helvetica Neue" font-size="52.0" fill="#525252" transform="matrix(1.00, 0.00, -0.00, -1.00, 1145.1, 196.7)">o</text><text xml:space="preserve" font-family="HelveticaNeue-Light,Helvetica Neue" font-size="52.0" fill="#525252" transform="matrix(1.00, 0.00, -0.00, -1.00, 1174.0, 196.7)">u</text><text xml:space="preserve" font-family="HelveticaNeue-Light,Helvetica Neue" font-size="52.0" fill="#525252" transform="matrix(1.00, 0.00, -0.00, -1.00, 1202.0, 196.7)">p</text><text xml:space="preserve" font-family="HelveticaNeue-Light,Helvetica Neue" font-size="52.0" fill="#525252" transform="matrix(1.00, 0.00, -0.00, -1.00, 1231.8, 196.7)">:</text><text xml:space="preserve" font-family="HelveticaNeue-Light,Helvetica Neue" font-size="52.0" fill="#525252" transform="matrix(1.00, 0.00, -0.00, -1.00, 1246.3, 196.7)"> </text><text xml:space="preserve" font-family="HelveticaNeue-Light,Helvetica Neue" font-size="52.0" fill="#525252" transform="matrix(1.00, 0.00, -0.00, -1.00, 1260.7, 196.7)">h</text><text xml:space="preserve" font-family="HelveticaNeue-Light,Helvetica Neue" font-size="52.0" fill="#525252" transform="matrix(1.00, 0.00, -0.00, -1.00, 1288.6, 196.7)">t</text><text xml:space="preserve" font-family="HelveticaNeue-Light,Helvetica Neue" font-size="52.0" fill="#525252" transform="matrix(1.00, 0.00, -0.00, -1.00, 1304.0, 196.7)">t</text><text xml:space="preserve" font-family="HelveticaNeue-Light,Helvetica Neue" font-size="52.0" fill="#525252" transform="matrix(1.00, 0.00, -0.00, -1.00, 1319.4, 196.7)">p</text><text xml:space="preserve" font-family="HelveticaNeue-Light,Helvetica Neue" font-size="52.0" fill="#525252" transform="matrix(1.00, 0.00, -0.00, -1.00, 1349.3, 196.7)">:</text><text xml:space="preserve" font-family="HelveticaNeue-Light,Helvetica Neue" font-size="52.0" fill="#525252" transform="matrix(1.00, 0.00, -0.00, -1.00, 1363.7, 196.7)">/</text><text xml:space="preserve" font-family="HelveticaNeue-Light,Helvetica Neue" font-size="52.0" fill="#525252" transform="matrix(1.00, 0.00, -0.00, -1.00, 1381.0, 196.7)">/</text><text xml:space="preserve" font-family="HelveticaNeue-Light,Helvetica Neue" font-size="52.0" fill="#525252" transform="matrix(1.00, 0.00, -0.00, -1.00, 1398.4, 196.7)">j</text><text xml:space="preserve" font-family="HelveticaNeue-Light,Helvetica Neue" font-size="52.0" fill="#525252" transform="matrix(1.00, 0.00, -0.00, -1.00, 1408.0, 196.7)">.</text><text xml:space="preserve" font-family="HelveticaNeue-Light,Helvetica Neue" font-size="52.0" fill="#525252" transform="matrix(1.00, 0.00, -0.00, -1.00, 1422.4, 196.7)">m</text><text xml:space="preserve" font-family="HelveticaNeue-Light,Helvetica Neue" font-size="52.0" fill="#525252" transform="matrix(1.00, 0.00, -0.00, -1.00, 1465.7, 196.7)">p</text><text xml:space="preserve" font-family="HelveticaNeue-Light,Helvetica Neue" font-size="52.0" fill="#525252" transform="matrix(1.00, 0.00, -0.00, -1.00, 1495.6, 196.7)">/</text><text xml:space="preserve" font-family="HelveticaNeue-Light,Helvetica Neue" font-size="52.0" fill="#525252" transform="matrix(1.00, 0.00, -0.00, -1.00, 1512.9, 196.7)">c</text><text xml:space="preserve" font-family="HelveticaNeue-Light,Helvetica Neue" font-size="52.0" fill="#525252" transform="matrix(1.00, 0.00, -0.00, -1.00, 1539.9, 196.7)">d</text><text xml:space="preserve" font-family="HelveticaNeue-Light,Helvetica Neue" font-size="52.0" fill="#525252" transform="matrix(1.00, 0.00, -0.00, -1.00, 1569.7, 196.7)">s</text><text xml:space="preserve" font-family="HelveticaNeue-Light,Helvetica Neue" font-size="52.0" fill="#525252" transform="matrix(1.00, 0.00, -0.00, -1.00, 1594.8, 196.7)">v</text><text xml:space="preserve" font-family="HelveticaNeue-Light,Helvetica Neue" font-size="52.0" fill="#525252" transform="matrix(1.00, 0.00, -0.00, -1.00, 1618.8, 196.7)">s</text><text xml:space="preserve" font-family="HelveticaNeue-Light,Helvetica Neue" font-size="52.0" fill="#525252" transform="matrix(1.00, 0.00, -0.00, -1.00, 1643.8, 196.7)">1</text><text xml:space="preserve" font-family="HelveticaNeue-Light,Helvetica Neue" font-size="52.0" fill="#525252" transform="matrix(1.00, 0.00, -0.00, -1.00, 1672.8, 196.7)">5</text><g><clipPath id="clip0x608000cac8a0"><path d="M 1259.7 189.2 L 1701.7 189.2 L 1701.7 193.8 L 1259.7 193.8 Z M 1259.7 189.2 "></path></clipPath><g clip-path="url(#clip0x608000cac8a0)"><path d="M 663.4 502.2 L 1104.4 502.2 " fill="none" stroke="#525252" stroke-width="2.60" transform="matrix(1.00, 0.00, 0.00, -1.00, 597.3, 693.7)"></path></g></g><g><clipPath id="clip0x608000cac660"><path d="M 232.0 747.0 L 646.0 747.0 L 646.0 333.0 L 232.0 333.0 Z M 232.3 747.3 "></path></clipPath><g clip-path="url(#clip0x608000cac660)"><g><clipPath id="clip0x608000cac4e0"><path d="M 435.5 334.3 C 434.9 335.2 429.9 335.9 424.3 335.9 C 412.9 335.9 388.7 340.5 373.6 345.6 C 335.2 358.4 298.7 384.4 274.7 415.9 C 266.0 427.3 259.4 438.1 260.5 439.0 C 263.0 441.1 309.5 467.1 310.7 467.1 C 311.5 467.0 314.4 463.6 317.0 459.5 C 328.4 441.4 353.2 419.8 374.6 409.1 C 415.0 389.0 466.6 390.0 506.7 411.5 C 527.9 423.0 549.3 442.1 560.4 459.6 C 563.0 463.7 565.7 467.0 566.5 467.1 C 568.8 467.2 617.0 439.2 617.0 437.8 C 617.1 434.7 599.4 411.1 588.3 399.3 C 559.3 368.9 521.0 347.8 478.9 339.1 C 470.2 337.4 458.5 335.9 453.0 335.9 C 447.4 335.9 442.4 335.2 441.9 334.3 C 441.3 333.4 439.9 332.7 438.7 332.7 C 437.4 332.7 436.0 333.4 435.5 334.3 M 609.9 496.9 L 584.0 511.7 L 585.0 517.8 C 587.5 563.8 582.3 587.4 564.5 617.3 C 556.7 630.4 539.0 649.8 525.4 660.1 C 512.2 670.1 489.5 680.8 474.3 684.3 L 462.0 687.1 L 462.0 717.1 L 462.0 747.0 L 469.5 746.0 C 482.3 744.3 505.3 738.0 518.9 732.3 C 579.2 706.8 622.7 656.0 639.4 591.2 C 641.2 584.2 642.7 576.5 642.7 574.1 C 642.7 571.7 643.4 569.3 644.3 568.7 C 645.2 568.1 645.9 557.3 645.9 541.5 C 645.9 525.8 645.2 514.9 644.3 514.3 C 643.4 513.8 642.7 511.5 642.7 509.4 C 642.7 504.7 637.9 484.4 636.4 482.9 C 635.9 482.4 623.9 488.7 609.9 496.9 M 237.3 494.7 C 228.7 531.6 231.4 577.3 244.4 612.7 C 267.1 674.4 318.3 722.1 380.9 740.0 C 393.4 743.5 396.2 743.8 409.5 746.0 L 416.0 747.0 L 415.0 717.3 L 415.0 687.3 L 404.2 684.7 C 374.0 677.1 350.9 663.1 328.9 639.1 C 318.9 628.3 312.5 618.4 305.0 602.7 C 292.2 575.8 288.2 549.3 293.0 518.2 L 294.0 512.5 L 268.6 497.8 C 254.6 489.7 242.4 483.1 241.6 483.1 C 240.7 483.1 238.8 488.3 237.3 494.7 "></path></clipPath><g clip-path="url(#clip0x608000cac4e0)"><image xlink:href="C2BEB82A471F3F2B7B7C0B30842B1303.png" width="400.00" height="400.00" transform="matrix(1.04, 0.00, -0.00, -1.04, 228.0, 750.0)"></image></g></g></g></g></g></svg>