<?xml version="1.0" encoding="UTF-8" standalone="no"?><svg xmlns="http://www.w3.org/2000/svg" xmlns:xlink="http://www.w3.org/1999/xlink" clip-rule="evenodd" stroke-miterlimit="10" viewBox="0 0 1920 1080"><desc>SVG generated by Keynote</desc><defs></defs><g transform="matrix(1.00, 0.00, -0.00, -1.00, 0.0, 1080.0)"><g><clipPath id="clip0x600000ea55e0"><path d="M 0.0 1080.0 L 1920.0 1080.0 L 1920.0 0.0 L 0.0 0.0 Z M 0.0 1080.0 "></path></clipPath><g clip-path="url(#clip0x600000ea55e0)"><image xlink:href="../../E2102944-48F7-4DE2-8C87-C7C0662EC55C/assets/574DCE55A4CF432400CBDDDE1DFDFC9B.jpeg" width="2048.00" height="1536.00" transform="matrix(0.94, 0.00, -0.00, -0.70, 0.0, 1080.0)"></image></g></g><g><clipPath id="clip0x608000cac1e0"><path d="M 805.0 695.0 L 1115.0 695.0 L 1115.0 385.0 L 805.0 385.0 Z M 805.1 695.3 "></path></clipPath><g clip-path="url(#clip0x608000cac1e0)"><g><clipPath id="clip0x608000cac060"><path d="M 957.3 385.8 C 956.9 386.5 953.1 387.0 948.9 387.0 C 940.4 387.0 922.3 390.5 910.9 394.3 C 882.1 403.9 854.8 423.4 836.8 447.0 C 830.3 455.5 825.3 463.6 826.2 464.3 C 828.1 465.9 862.9 485.4 863.8 485.3 C 864.4 485.3 866.5 482.7 868.5 479.6 C 877.1 466.1 895.7 449.9 911.7 441.9 C 942.0 426.9 980.7 427.6 1010.6 443.7 C 1026.6 452.3 1042.6 466.6 1050.9 479.7 C 1052.8 482.8 1054.9 485.3 1055.5 485.3 C 1057.2 485.4 1093.3 464.5 1093.4 463.4 C 1093.4 461.1 1080.2 443.4 1071.8 434.6 C 1050.1 411.8 1021.4 396.0 989.8 389.5 C 983.3 388.1 974.6 387.0 970.4 387.0 C 966.2 387.0 962.5 386.5 962.1 385.8 C 961.7 385.2 960.6 384.6 959.7 384.6 C 958.8 384.6 957.7 385.2 957.3 385.8 M 1088.0 507.7 L 1069.0 518.8 L 1069.0 523.4 C 1070.8 557.8 1067.3 575.5 1054.0 597.9 C 1048.2 607.7 1034.9 622.3 1024.7 630.0 C 1014.8 637.5 997.8 645.5 986.4 648.1 L 977.0 650.2 L 977.0 672.7 L 977.0 695.0 L 982.8 694.0 C 992.4 692.8 1009.6 688.4 1019.8 684.1 C 1065.0 665.0 1097.6 626.9 1110.1 578.4 C 1111.5 573.1 1112.6 567.4 1112.6 565.6 C 1112.6 563.7 1113.1 561.9 1113.8 561.5 C 1114.5 561.1 1115.0 552.9 1115.0 541.1 C 1115.0 529.3 1114.5 521.2 1113.8 520.7 C 1113.1 520.3 1112.6 518.7 1112.6 517.0 C 1112.6 513.5 1109.0 498.3 1107.9 497.2 C 1107.5 496.8 1098.5 501.5 1088.0 507.7 M 808.8 506.1 C 802.3 533.7 804.4 567.9 814.1 594.5 C 831.1 640.7 869.5 676.5 916.4 689.8 C 925.7 692.5 927.9 693.4 937.8 695.0 L 942.0 695.0 L 942.0 672.9 L 942.0 650.4 L 933.8 648.4 C 911.2 642.7 893.9 632.2 877.4 614.3 C 870.0 606.1 865.1 598.8 859.5 587.0 C 849.9 566.8 847.4 547.0 851.0 523.7 L 851.0 519.4 L 832.3 508.4 C 821.7 502.3 812.6 497.4 812.0 497.4 C 811.3 497.4 809.9 501.3 808.8 506.1 "></path></clipPath><g clip-path="url(#clip0x608000cac060)"><image xlink:href="../../E2102944-48F7-4DE2-8C87-C7C0662EC55C/assets/C2BEB82A471F3F2B7B7C0B30842B1303.png" width="400.00" height="400.00" transform="matrix(0.78, 0.00, -0.00, -0.78, 802.0, 698.0)"></image></g></g></g></g></g></svg>