<?xml version="1.0" encoding="UTF-8" standalone="no"?><svg xmlns="http://www.w3.org/2000/svg" xmlns:xlink="http://www.w3.org/1999/xlink" clip-rule="evenodd" stroke-miterlimit="10" viewBox="0 0 1920 1080"><desc>SVG generated by Keynote</desc><defs></defs><g transform="matrix(1.00, 0.00, -0.00, -1.00, 0.0, 1080.0)"><g><clipPath id="clip0x608000cabc40"><path d="M 0.0 1080.0 L 1920.0 1080.0 L 1920.0 0.0 L 0.0 0.0 Z M 0.0 1080.0 "></path></clipPath><g clip-path="url(#clip0x608000cabc40)"><image xlink:href="../../E2102944-48F7-4DE2-8C87-C7C0662EC55C/assets/574DCE55A4CF432400CBDDDE1DFDFC9B.jpeg" width="2048.00" height="1536.00" transform="matrix(0.94, 0.00, -0.00, -0.70, 0.0, 1080.0)"></image></g></g><text xml:space="preserve" font-family="HelveticaNeue-UltraLight,Helvetica Neue" font-size="135.0" fill="#525252" transform="matrix(1.00, 0.00, -0.00, -1.00, 45.0, 287.3)">W</text><text xml:space="preserve" font-family="HelveticaNeue-UltraLight,Helvetica Neue" font-size="135.0" fill="#525252" transform="matrix(1.00, 0.00, -0.00, -1.00, 162.5, 287.3)">E</text><text xml:space="preserve" font-family="HelveticaNeue-UltraLight,Helvetica Neue" font-size="135.0" fill="#525252" transform="matrix(1.00, 0.00, -0.00, -1.00, 235.0, 287.3)">L</text><text xml:space="preserve" font-family="HelveticaNeue-UltraLight,Helvetica Neue" font-size="135.0" fill="#525252" transform="matrix(1.00, 0.00, -0.00, -1.00, 299.9, 287.3)">C</text><text xml:space="preserve" font-family="HelveticaNeue-UltraLight,Helvetica Neue" font-size="135.0" fill="#525252" transform="matrix(1.00, 0.00, -0.00, -1.00, 392.4, 287.3)">O</text><text xml:space="preserve" font-family="HelveticaNeue-UltraLight,Helvetica Neue" font-size="135.0" fill="#525252" transform="matrix(1.00, 0.00, -0.00, -1.00, 489.7, 287.3)">M</text><text xml:space="preserve" font-family="HelveticaNeue-UltraLight,Helvetica Neue" font-size="135.0" fill="#525252" transform="matrix(1.00, 0.00, -0.00, -1.00, 595.0, 287.3)">E</text><text xml:space="preserve" font-family="HelveticaNeue-UltraLight,Helvetica Neue" font-size="135.0" fill="#525252" transform="matrix(1.00, 0.00, -0.00, -1.00, 667.5, 287.3)"> </text><text xml:space="preserve" font-family="HelveticaNeue-UltraLight,Helvetica Neue" font-size="135.0" fill="#525252" transform="matrix(1.00, 0.00, -0.00, -1.00, 705.1, 287.3)">T</text><text xml:space="preserve" font-family="HelveticaNeue-UltraLight,Helvetica Neue" font-size="135.0" fill="#525252" transform="matrix(1.00, 0.00, -0.00, -1.00, 772.6, 287.3)">O</text><text xml:space="preserve" font-family="HelveticaNeue-UltraLight,Helvetica Neue" font-size="135.0" fill="#525252" transform="matrix(1.00, 0.00, -0.00, -1.00, 869.9, 287.3)"> </text><text xml:space="preserve" font-family="HelveticaNeue-UltraLight,Helvetica Neue" font-size="135.0" fill="#525252" transform="matrix(1.00, 0.00, -0.00, -1.00, 907.4, 287.3)">C</text><text xml:space="preserve" font-family="HelveticaNeue-UltraLight,Helvetica Neue" font-size="135.0" fill="#525252" transform="matrix(1.00, 0.00, -0.00, -1.00, 999.9, 287.3)">O</text><text xml:space="preserve" font-family="HelveticaNeue-UltraLight,Helvetica Neue" font-size="135.0" fill="#525252" transform="matrix(1.00, 0.00, -0.00, -1.00, 1097.2, 287.3)">D</text><text xml:space="preserve" font-family="HelveticaNeue-UltraLight,Helvetica Neue" font-size="135.0" fill="#525252" transform="matrix(1.00, 0.00, -0.00, -1.00, 1184.7, 287.3)">E</text><text xml:space="preserve" font-family="HelveticaNeue-UltraLight,Helvetica Neue" font-size="135.0" fill="#525252" transform="matrix(1.00, 0.00, -0.00, -1.00, 1257.2, 287.3)">D</text><text xml:space="preserve" font-family="HelveticaNeue-UltraLight,Helvetica Neue" font-size="135.0" fill="#525252" transform="matrix(1.00, 0.00, -0.00, -1.00, 1344.7, 287.3)">A</text><text xml:space="preserve" font-family="HelveticaNeue-UltraLight,Helvetica Neue" font-size="135.0" fill="#525252" transform="matrix(1.00, 0.00, -0.00, -1.00, 1417.3, 287.3)">Y</text><text xml:space="preserve" font-family="HelveticaNeue-UltraLight,Helvetica Neue" font-size="135.0" fill="#525252" transform="matrix(1.00, 0.00, -0.00, -1.00, 1489.9, 287.3)"> </text><text xml:space="preserve" font-family="HelveticaNeue-UltraLight,Helvetica Neue" font-size="135.0" fill="#525252" transform="matrix(1.00, 0.00, -0.00, -1.00, 1527.5, 287.3)">S</text><text xml:space="preserve" font-family="HelveticaNeue-UltraLight,Helvetica Neue" font-size="135.0" fill="#525252" transform="matrix(1.00, 0.00, -0.00, -1.00, 1610.0, 287.3)">F</text><text xml:space="preserve" font-family="HelveticaNeue-UltraLight,Helvetica Neue" font-size="135.0" fill="#525252" transform="matrix(1.00, 0.00, -0.00, -1.00, 1674.9, 287.3)">/</text><text xml:space="preserve" font-family="HelveticaNeue-UltraLight,Helvetica Neue" font-size="135.0" fill="#525252" transform="matrix(1.00, 0.00, -0.00, -1.00, 1719.8, 287.3)">S</text><text xml:space="preserve" font-family="HelveticaNeue-UltraLight,Helvetica Neue" font-size="135.0" fill="#525252" transform="matrix(1.00, 0.00, -0.00, -1.00, 1802.3, 287.3)">V</text><g><clipPath id="clip0x608000cab280"><path d="M 805.0 902.0 L 1115.0 902.0 L 1115.0 591.0 L 805.0 591.0 Z M 805.0 901.6 "></path></clipPath><g clip-path="url(#clip0x608000cab280)"><g><clipPath id="clip0x608000caaf80"><path d="M 957.3 592.1 C 956.9 592.7 953.1 593.3 948.9 593.3 C 940.3 593.3 922.3 596.7 910.9 600.5 C 882.1 610.2 854.8 629.6 836.8 653.2 C 830.3 661.7 825.3 669.8 826.2 670.6 C 828.1 672.1 862.9 691.6 863.8 691.5 C 864.4 691.5 866.5 689.0 868.5 685.9 C 877.1 672.4 895.7 656.1 911.7 648.1 C 942.0 633.1 980.7 633.8 1010.6 649.9 C 1026.6 658.5 1042.6 672.8 1050.9 686.0 C 1052.8 689.0 1054.9 691.5 1055.5 691.5 C 1057.2 691.6 1093.3 670.7 1093.4 669.6 C 1093.4 667.3 1080.2 649.6 1071.8 640.8 C 1050.1 618.0 1021.4 602.2 989.8 595.7 C 983.3 594.4 974.6 593.3 970.4 593.3 C 966.2 593.3 962.5 592.7 962.1 592.1 C 961.7 591.4 960.6 590.9 959.7 590.9 C 958.8 590.9 957.7 591.4 957.3 592.1 M 1088.0 713.9 L 1069.0 725.0 L 1069.0 729.6 C 1070.8 764.0 1067.3 781.7 1054.0 804.2 C 1048.2 814.0 1034.9 828.5 1024.7 836.2 C 1014.8 843.7 997.8 851.7 986.4 854.3 L 977.0 856.5 L 977.0 878.9 L 977.0 901.0 L 982.8 901.0 C 992.4 899.8 1009.6 894.6 1019.8 890.3 C 1065.0 871.2 1097.6 833.1 1110.1 784.6 C 1111.5 779.4 1112.6 773.6 1112.6 771.8 C 1112.6 770.0 1113.1 768.1 1113.8 767.7 C 1114.5 767.3 1115.0 759.2 1115.0 747.4 C 1115.0 735.6 1114.5 727.4 1113.8 727.0 C 1113.1 726.6 1112.6 724.9 1112.6 723.2 C 1112.6 719.8 1109.0 704.5 1107.9 703.5 C 1107.5 703.1 1098.5 707.7 1088.0 713.9 M 808.8 712.3 C 802.3 740.0 804.4 774.2 814.1 800.7 C 831.1 846.9 869.5 882.7 916.4 896.1 C 925.7 898.7 927.9 899.4 937.8 901.0 L 942.0 902.0 L 942.0 879.1 L 942.0 856.6 L 933.8 854.7 C 911.2 849.0 893.9 838.4 877.4 820.5 C 870.0 812.4 865.1 805.0 859.5 793.2 C 849.9 773.1 847.4 753.2 851.0 729.9 L 851.0 725.6 L 832.3 714.6 C 821.7 708.5 812.6 703.6 812.0 703.6 C 811.3 703.6 809.9 707.5 808.8 712.3 "></path></clipPath><g clip-path="url(#clip0x608000caaf80)"><image xlink:href="../../E2102944-48F7-4DE2-8C87-C7C0662EC55C/assets/C2BEB82A471F3F2B7B7C0B30842B1303.png" width="400.00" height="400.00" transform="matrix(0.78, 0.00, -0.00, -0.78, 802.0, 904.0)"></image></g></g></g></g></g></svg>