<?xml version="1.0" encoding="UTF-8" standalone="no"?><svg xmlns="http://www.w3.org/2000/svg" xmlns:xlink="http://www.w3.org/1999/xlink" clip-rule="evenodd" stroke-miterlimit="10" viewBox="0 0 1434 96"><desc>SVG generated by Keynote</desc><defs></defs><g transform="matrix(1.00, 0.00, -0.00, -1.00, 0.0, 96.0)"><text xml:space="preserve" font-family="HelveticaNeue-Medium,Helvetica Neue" font-size="123.0" fill="#FEFFFE" transform="matrix(1.00, 0.00, -0.00, -1.00, 2.8, 4.2)">A</text><text xml:space="preserve" font-family="HelveticaNeue-Medium,Helvetica Neue" font-size="123.0" fill="#FEFFFE" transform="matrix(1.00, 0.00, -0.00, -1.00, 81.8, 4.2)">W</text><text xml:space="preserve" font-family="HelveticaNeue-Medium,Helvetica Neue" font-size="123.0" fill="#FEFFFE" transform="matrix(1.00, 0.00, -0.00, -1.00, 197.9, 4.2)">E</text><text xml:space="preserve" font-family="HelveticaNeue-Medium,Helvetica Neue" font-size="123.0" fill="#FEFFFE" transform="matrix(1.00, 0.00, -0.00, -1.00, 275.4, 4.2)">S</text><text xml:space="preserve" font-family="HelveticaNeue-Medium,Helvetica Neue" font-size="123.0" fill="#FEFFFE" transform="matrix(1.00, 0.00, -0.00, -1.00, 355.1, 4.2)">O</text><text xml:space="preserve" font-family="HelveticaNeue-Medium,Helvetica Neue" font-size="123.0" fill="#FEFFFE" transform="matrix(1.00, 0.00, -0.00, -1.00, 448.6, 4.2)">M</text><text xml:space="preserve" font-family="HelveticaNeue-Medium,Helvetica Neue" font-size="123.0" fill="#FEFFFE" transform="matrix(1.00, 0.00, -0.00, -1.00, 557.9, 4.2)">E</text><text xml:space="preserve" font-family="HelveticaNeue-Medium,Helvetica Neue" font-size="123.0" fill="#FEFFFE" transform="matrix(1.00, 0.00, -0.00, -1.00, 635.4, 4.2)"> </text><text xml:space="preserve" font-family="HelveticaNeue-Medium,Helvetica Neue" font-size="123.0" fill="#FEFFFE" transform="matrix(1.00, 0.00, -0.00, -1.00, 669.6, 4.2)">I</text><text xml:space="preserve" font-family="HelveticaNeue-Medium,Helvetica Neue" font-size="123.0" fill="#FEFFFE" transform="matrix(1.00, 0.00, -0.00, -1.00, 703.8, 4.2)">N</text><text xml:space="preserve" font-family="HelveticaNeue-Medium,Helvetica Neue" font-size="123.0" fill="#FEFFFE" transform="matrix(1.00, 0.00, -0.00, -1.00, 792.6, 4.2)"> </text><text xml:space="preserve" font-family="HelveticaNeue-Medium,Helvetica Neue" font-size="123.0" fill="#FEFFFE" transform="matrix(1.00, 0.00, -0.00, -1.00, 826.8, 4.2)">2</text><text xml:space="preserve" font-family="HelveticaNeue-Medium,Helvetica Neue" font-size="123.0" fill="#FEFFFE" transform="matrix(1.00, 0.00, -0.00, -1.00, 895.2, 4.2)">4</text><text xml:space="preserve" font-family="HelveticaNeue-Medium,Helvetica Neue" font-size="123.0" fill="#FEFFFE" transform="matrix(1.00, 0.00, -0.00, -1.00, 963.6, 4.2)"> </text><text xml:space="preserve" font-family="HelveticaNeue-Medium,Helvetica Neue" font-size="123.0" fill="#FEFFFE" transform="matrix(1.00, 0.00, -0.00, -1.00, 997.8, 4.2)">H</text><text xml:space="preserve" font-family="HelveticaNeue-Medium,Helvetica Neue" font-size="123.0" fill="#FEFFFE" transform="matrix(1.00, 0.00, -0.00, -1.00, 1086.6, 4.2)">O</text><text xml:space="preserve" font-family="HelveticaNeue-Medium,Helvetica Neue" font-size="123.0" fill="#FEFFFE" transform="matrix(1.00, 0.00, -0.00, -1.00, 1180.1, 4.2)">U</text><text xml:space="preserve" font-family="HelveticaNeue-Medium,Helvetica Neue" font-size="123.0" fill="#FEFFFE" transform="matrix(1.00, 0.00, -0.00, -1.00, 1268.9, 4.2)">R</text><text xml:space="preserve" font-family="HelveticaNeue-Medium,Helvetica Neue" font-size="123.0" fill="#FEFFFE" transform="matrix(1.00, 0.00, -0.00, -1.00, 1355.5, 4.2)">S</text></g></svg>