<?xml version="1.0" encoding="UTF-8" standalone="no"?><svg xmlns="http://www.w3.org/2000/svg" xmlns:xlink="http://www.w3.org/1999/xlink" clip-rule="evenodd" stroke-miterlimit="10" viewBox="0 0 1920 1080"><desc>SVG generated by Keynote</desc><defs></defs><g transform="matrix(1.00, 0.00, -0.00, -1.00, 0.0, 1080.0)"><g><clipPath id="clip0x600000eb9140"><path d="M 0.0 1080.0 L 1920.0 1080.0 L 1920.0 0.0 L 0.0 0.0 Z M 0.0 1080.0 "></path></clipPath><g clip-path="url(#clip0x600000eb9140)"><image xlink:href="../../E2102944-48F7-4DE2-8C87-C7C0662EC55C/assets/574DCE55A4CF432400CBDDDE1DFDFC9B.jpeg" width="2048.00" height="1536.00" transform="matrix(0.94, 0.00, -0.00, -0.70, 0.0, 1080.0)"></image></g></g><image xlink:href="7A24E0B5D4CF165BCB41385DD0F58474.png" width="2336.00" height="972.00" transform="matrix(0.82, 0.00, -0.00, -0.82, 0.0, 940.0)"></image><text xml:space="preserve" font-family="HelveticaNeue-Light,Helvetica Neue" font-size="126.0" fill="#FEFFFE" transform="matrix(1.00, 0.00, -0.00, -1.00, 403.3, 492.9)">P</text><text xml:space="preserve" font-family="HelveticaNeue-Light,Helvetica Neue" font-size="126.0" fill="#FEFFFE" transform="matrix(1.00, 0.00, -0.00, -1.00, 482.7, 492.9)">I</text><text xml:space="preserve" font-family="HelveticaNeue-Light,Helvetica Neue" font-size="126.0" fill="#FEFFFE" transform="matrix(1.00, 0.00, -0.00, -1.00, 510.7, 492.9)">T</text><text xml:space="preserve" font-family="HelveticaNeue-Light,Helvetica Neue" font-size="126.0" fill="#FEFFFE" transform="matrix(1.00, 0.00, -0.00, -1.00, 580.7, 492.9)">C</text><text xml:space="preserve" font-family="HelveticaNeue-Light,Helvetica Neue" font-size="126.0" fill="#FEFFFE" transform="matrix(1.00, 0.00, -0.00, -1.00, 669.4, 492.9)">H</text><text xml:space="preserve" font-family="HelveticaNeue-Light,Helvetica Neue" font-size="126.0" fill="#FEFFFE" transform="matrix(1.00, 0.00, -0.00, -1.00, 758.1, 492.9)"> </text><text xml:space="preserve" font-family="HelveticaNeue-Light,Helvetica Neue" font-size="126.0" fill="#FEFFFE" transform="matrix(1.00, 0.00, -0.00, -1.00, 793.2, 492.9)">Y</text><text xml:space="preserve" font-family="HelveticaNeue-Light,Helvetica Neue" font-size="126.0" fill="#FEFFFE" transform="matrix(1.00, 0.00, -0.00, -1.00, 870.2, 492.9)">O</text><text xml:space="preserve" font-family="HelveticaNeue-Light,Helvetica Neue" font-size="126.0" fill="#FEFFFE" transform="matrix(1.00, 0.00, -0.00, -1.00, 963.5, 492.9)">U</text><text xml:space="preserve" font-family="HelveticaNeue-Light,Helvetica Neue" font-size="126.0" fill="#FEFFFE" transform="matrix(1.00, 0.00, -0.00, -1.00, 1049.8, 492.9)">R</text><text xml:space="preserve" font-family="HelveticaNeue-Light,Helvetica Neue" font-size="126.0" fill="#FEFFFE" transform="matrix(1.00, 0.00, -0.00, -1.00, 1133.9, 492.9)"> </text><text xml:space="preserve" font-family="HelveticaNeue-Light,Helvetica Neue" font-size="126.0" fill="#FEFFFE" transform="matrix(1.00, 0.00, -0.00, -1.00, 1168.9, 492.9)">I</text><text xml:space="preserve" font-family="HelveticaNeue-Light,Helvetica Neue" font-size="126.0" fill="#FEFFFE" transform="matrix(1.00, 0.00, -0.00, -1.00, 1196.9, 492.9)">D</text><text xml:space="preserve" font-family="HelveticaNeue-Light,Helvetica Neue" font-size="126.0" fill="#FEFFFE" transform="matrix(1.00, 0.00, -0.00, -1.00, 1283.2, 492.9)">E</text><text xml:space="preserve" font-family="HelveticaNeue-Light,Helvetica Neue" font-size="126.0" fill="#FEFFFE" transform="matrix(1.00, 0.00, -0.00, -1.00, 1357.9, 492.9)">A</text><text xml:space="preserve" font-family="HelveticaNeue-Light,Helvetica Neue" font-size="126.0" fill="#FEFFFE" transform="matrix(1.00, 0.00, -0.00, -1.00, 1437.3, 492.9)">S</text></g></svg>