<?xml version="1.0" encoding="UTF-8" standalone="no"?><svg xmlns="http://www.w3.org/2000/svg" xmlns:xlink="http://www.w3.org/1999/xlink" clip-rule="evenodd" stroke-miterlimit="10" viewBox="0 0 1920 1080"><desc>SVG generated by Keynote</desc><defs></defs><g transform="matrix(1.00, 0.00, -0.00, -1.00, 0.0, 1080.0)"><g><clipPath id="clip0x6000010ac360"><path d="M 0.0 1080.0 L 1920.0 1080.0 L 1920.0 0.0 L 0.0 0.0 Z M 0.0 1080.0 "></path></clipPath><g clip-path="url(#clip0x6000010ac360)"><image xlink:href="../../E2102944-48F7-4DE2-8C87-C7C0662EC55C/assets/574DCE55A4CF432400CBDDDE1DFDFC9B.jpeg" width="2048.00" height="1536.00" transform="matrix(0.94, 0.00, -0.00, -0.70, 0.0, 1080.0)"></image></g></g><text xml:space="preserve" font-family="HelveticaNeue-Light,Helvetica Neue" font-size="50.0" fill="#525252" transform="matrix(1.00, 0.00, -0.00, -1.00, 801.6, 636.5)">L</text><text xml:space="preserve" font-family="HelveticaNeue-Light,Helvetica Neue" font-size="50.0" fill="#525252" transform="matrix(1.00, 0.00, -0.00, -1.00, 828.4, 636.5)">E</text><text xml:space="preserve" font-family="HelveticaNeue-Light,Helvetica Neue" font-size="50.0" fill="#525252" transform="matrix(1.00, 0.00, -0.00, -1.00, 858.1, 636.5)">T</text><text xml:space="preserve" font-family="HelveticaNeue-Light,Helvetica Neue" font-size="50.0" fill="#525252" transform="matrix(1.00, 0.00, -0.00, -1.00, 885.9, 636.5)">’</text><text xml:space="preserve" font-family="HelveticaNeue-Light,Helvetica Neue" font-size="50.0" fill="#525252" transform="matrix(1.00, 0.00, -0.00, -1.00, 899.8, 636.5)">S</text><text xml:space="preserve" font-family="HelveticaNeue-Light,Helvetica Neue" font-size="50.0" fill="#525252" transform="matrix(1.00, 0.00, -0.00, -1.00, 931.3, 636.5)"> </text><text xml:space="preserve" font-family="HelveticaNeue-Light,Helvetica Neue" font-size="50.0" fill="#525252" transform="matrix(1.00, 0.00, -0.00, -1.00, 945.2, 636.5)">G</text><text xml:space="preserve" font-family="HelveticaNeue-Light,Helvetica Neue" font-size="50.0" fill="#525252" transform="matrix(1.00, 0.00, -0.00, -1.00, 982.2, 636.5)">E</text><text xml:space="preserve" font-family="HelveticaNeue-Light,Helvetica Neue" font-size="50.0" fill="#525252" transform="matrix(1.00, 0.00, -0.00, -1.00, 1011.9, 636.5)">T</text><text xml:space="preserve" font-family="HelveticaNeue-Light,Helvetica Neue" font-size="50.0" fill="#525252" transform="matrix(1.00, 0.00, -0.00, -1.00, 1039.7, 636.5)"> </text><text xml:space="preserve" font-family="HelveticaNeue-Light,Helvetica Neue" font-size="50.0" fill="#525252" transform="matrix(1.00, 0.00, -0.00, -1.00, 1053.6, 636.5)">T</text><text xml:space="preserve" font-family="HelveticaNeue-Light,Helvetica Neue" font-size="50.0" fill="#525252" transform="matrix(1.00, 0.00, -0.00, -1.00, 1081.4, 636.5)">O</text><text xml:space="preserve" font-family="HelveticaNeue-Light,Helvetica Neue" font-size="50.0" fill="#525252" transform="matrix(1.00, 0.00, -0.00, -1.00, 1118.4, 636.5)"> </text><text xml:space="preserve" font-family="HelveticaNeue-UltraLight,Helvetica Neue" font-size="200.0" fill="#525252" transform="matrix(1.00, 0.00, -0.00, -1.00, 591.7, 438.4)">P</text><text xml:space="preserve" font-family="HelveticaNeue-UltraLight,Helvetica Neue" font-size="200.0" fill="#525252" transform="matrix(1.00, 0.00, -0.00, -1.00, 706.5, 438.4)">I</text><text xml:space="preserve" font-family="HelveticaNeue-UltraLight,Helvetica Neue" font-size="200.0" fill="#525252" transform="matrix(1.00, 0.00, -0.00, -1.00, 732.1, 438.4)">T</text><text xml:space="preserve" font-family="HelveticaNeue-UltraLight,Helvetica Neue" font-size="200.0" fill="#525252" transform="matrix(1.00, 0.00, -0.00, -1.00, 832.1, 438.4)">C</text><text xml:space="preserve" font-family="HelveticaNeue-UltraLight,Helvetica Neue" font-size="200.0" fill="#525252" transform="matrix(1.00, 0.00, -0.00, -1.00, 969.1, 438.4)">H</text><text xml:space="preserve" font-family="HelveticaNeue-UltraLight,Helvetica Neue" font-size="200.0" fill="#525252" transform="matrix(1.00, 0.00, -0.00, -1.00, 1098.7, 438.4)">E</text><text xml:space="preserve" font-family="HelveticaNeue-UltraLight,Helvetica Neue" font-size="200.0" fill="#525252" transform="matrix(1.00, 0.00, -0.00, -1.00, 1206.1, 438.4)">S</text></g></svg>