<?xml version="1.0" encoding="UTF-8" standalone="no"?><svg xmlns="http://www.w3.org/2000/svg" xmlns:xlink="http://www.w3.org/1999/xlink" clip-rule="evenodd" stroke-miterlimit="10" viewBox="0 0 1920 1080"><desc>SVG generated by Keynote</desc><defs></defs><g transform="matrix(1.00, 0.00, -0.00, -1.00, 0.0, 1080.0)"><g><clipPath id="clip0x608000eb4820"><path d="M 0.0 1080.0 L 1920.0 1080.0 L 1920.0 0.0 L 0.0 0.0 Z M 0.0 1080.0 "></path></clipPath><g clip-path="url(#clip0x608000eb4820)"><image xlink:href="../../E2102944-48F7-4DE2-8C87-C7C0662EC55C/assets/574DCE55A4CF432400CBDDDE1DFDFC9B.jpeg" width="2048.00" height="1536.00" transform="matrix(0.94, 0.00, -0.00, -0.70, 0.0, 1080.0)"></image></g></g><text xml:space="preserve" font-family="HelveticaNeue-Light,Helvetica Neue" font-size="100.0" fill="#525252" transform="matrix(1.00, 0.00, -0.00, -1.00, 428.4, 879.5)">T</text><text xml:space="preserve" font-family="HelveticaNeue-Light,Helvetica Neue" font-size="100.0" fill="#525252" transform="matrix(1.00, 0.00, -0.00, -1.00, 484.0, 879.5)">O</text><text xml:space="preserve" font-family="HelveticaNeue-Light,Helvetica Neue" font-size="100.0" fill="#525252" transform="matrix(1.00, 0.00, -0.00, -1.00, 558.1, 879.5)">D</text><text xml:space="preserve" font-family="HelveticaNeue-Light,Helvetica Neue" font-size="100.0" fill="#525252" transform="matrix(1.00, 0.00, -0.00, -1.00, 626.6, 879.5)">A</text><text xml:space="preserve" font-family="HelveticaNeue-Light,Helvetica Neue" font-size="100.0" fill="#525252" transform="matrix(1.00, 0.00, -0.00, -1.00, 682.2, 879.5)">Y</text><text xml:space="preserve" font-family="HelveticaNeue-Light,Helvetica Neue" font-size="100.0" fill="#525252" transform="matrix(1.00, 0.00, -0.00, -1.00, 743.2, 879.5)">’</text><text xml:space="preserve" font-family="HelveticaNeue-Light,Helvetica Neue" font-size="100.0" fill="#525252" transform="matrix(1.00, 0.00, -0.00, -1.00, 771.1, 879.5)">S</text><text xml:space="preserve" font-family="HelveticaNeue-Light,Helvetica Neue" font-size="100.0" fill="#525252" transform="matrix(1.00, 0.00, -0.00, -1.00, 834.1, 879.5)"> </text><text xml:space="preserve" font-family="HelveticaNeue-Light,Helvetica Neue" font-size="100.0" fill="#525252" transform="matrix(1.00, 0.00, -0.00, -1.00, 861.9, 879.5)">W</text><text xml:space="preserve" font-family="HelveticaNeue-Light,Helvetica Neue" font-size="100.0" fill="#525252" transform="matrix(1.00, 0.00, -0.00, -1.00, 952.6, 879.5)">O</text><text xml:space="preserve" font-family="HelveticaNeue-Light,Helvetica Neue" font-size="100.0" fill="#525252" transform="matrix(1.00, 0.00, -0.00, -1.00, 1026.7, 879.5)">R</text><text xml:space="preserve" font-family="HelveticaNeue-Light,Helvetica Neue" font-size="100.0" fill="#525252" transform="matrix(1.00, 0.00, -0.00, -1.00, 1093.4, 879.5)">K</text><text xml:space="preserve" font-family="HelveticaNeue-Light,Helvetica Neue" font-size="100.0" fill="#525252" transform="matrix(1.00, 0.00, -0.00, -1.00, 1158.2, 879.5)">S</text><text xml:space="preserve" font-family="HelveticaNeue-Light,Helvetica Neue" font-size="100.0" fill="#525252" transform="matrix(1.00, 0.00, -0.00, -1.00, 1221.2, 879.5)">H</text><text xml:space="preserve" font-family="HelveticaNeue-Light,Helvetica Neue" font-size="100.0" fill="#525252" transform="matrix(1.00, 0.00, -0.00, -1.00, 1291.6, 879.5)">O</text><text xml:space="preserve" font-family="HelveticaNeue-Light,Helvetica Neue" font-size="100.0" fill="#525252" transform="matrix(1.00, 0.00, -0.00, -1.00, 1365.7, 879.5)">P</text><text xml:space="preserve" font-family="HelveticaNeue-Light,Helvetica Neue" font-size="100.0" fill="#525252" transform="matrix(1.00, 0.00, -0.00, -1.00, 1428.7, 879.5)">S</text><text xml:space="preserve" font-family="JustTheWayYouAre,Just The Way You Are" font-size="35.7" fill="#525252" transform="matrix(1.00, 0.00, -0.00, -1.00, 285.0, 718.8)">•</text><text xml:space="preserve" font-family="JustTheWayYouAre,Just The Way You Are" font-size="43.5" fill="#525252" transform="matrix(1.00, 0.00, -0.00, -1.00, 323.8, 716.4)">1</text><text xml:space="preserve" font-family="JustTheWayYouAre,Just The Way You Are" font-size="43.5" fill="#525252" transform="matrix(1.00, 0.00, -0.00, -1.00, 328.7, 716.4)">:</text><text xml:space="preserve" font-family="JustTheWayYouAre,Just The Way You Are" font-size="43.5" fill="#525252" transform="matrix(1.00, 0.00, -0.00, -1.00, 335.5, 716.4)">3</text><text xml:space="preserve" font-family="JustTheWayYouAre,Just The Way You Are" font-size="43.5" fill="#525252" transform="matrix(1.00, 0.00, -0.00, -1.00, 356.8, 716.4)">0</text><text xml:space="preserve" font-family="JustTheWayYouAre,Just The Way You Are" font-size="43.5" fill="#525252" transform="matrix(1.00, 0.00, -0.00, -1.00, 376.5, 716.4)">p</text><text xml:space="preserve" font-family="JustTheWayYouAre,Just The Way You Are" font-size="43.5" fill="#525252" transform="matrix(1.00, 0.00, -0.00, -1.00, 399.3, 716.4)">m</text><text xml:space="preserve" font-family="JustTheWayYouAre,Just The Way You Are" font-size="43.5" fill="#525252" transform="matrix(1.00, 0.00, -0.00, -1.00, 431.3, 716.4)">:</text><text xml:space="preserve" font-family="JustTheWayYouAre,Just The Way You Are" font-size="43.5" fill="#525252" transform="matrix(1.00, 0.00, -0.00, -1.00, 438.1, 716.4)"> </text><text xml:space="preserve" font-family="JustTheWayYouAre,Just The Way You Are" font-size="43.5" fill="#525252" transform="matrix(1.00, 0.00, -0.00, -1.00, 459.8, 716.4)">G</text><text xml:space="preserve" font-family="JustTheWayYouAre,Just The Way You Are" font-size="43.5" fill="#525252" transform="matrix(1.00, 0.00, -0.00, -1.00, 489.6, 716.4)">e</text><text xml:space="preserve" font-family="JustTheWayYouAre,Just The Way You Are" font-size="43.5" fill="#525252" transform="matrix(1.00, 0.00, -0.00, -1.00, 508.1, 716.4)">t</text><text xml:space="preserve" font-family="JustTheWayYouAre,Just The Way You Are" font-size="43.5" fill="#525252" transform="matrix(1.00, 0.00, -0.00, -1.00, 525.9, 716.4)">t</text><text xml:space="preserve" font-family="JustTheWayYouAre,Just The Way You Are" font-size="43.5" fill="#525252" transform="matrix(1.00, 0.00, -0.00, -1.00, 543.8, 716.4)">i</text><text xml:space="preserve" font-family="JustTheWayYouAre,Just The Way You Are" font-size="43.5" fill="#525252" transform="matrix(1.00, 0.00, -0.00, -1.00, 549.3, 716.4)">n</text><text xml:space="preserve" font-family="JustTheWayYouAre,Just The Way You Are" font-size="43.5" fill="#525252" transform="matrix(1.00, 0.00, -0.00, -1.00, 571.2, 716.4)">g</text><text xml:space="preserve" font-family="JustTheWayYouAre,Just The Way You Are" font-size="43.5" fill="#525252" transform="matrix(1.00, 0.00, -0.00, -1.00, 590.7, 716.4)"> </text><text xml:space="preserve" font-family="JustTheWayYouAre,Just The Way You Are" font-size="43.5" fill="#525252" transform="matrix(1.00, 0.00, -0.00, -1.00, 612.5, 716.4)">s</text><text xml:space="preserve" font-family="JustTheWayYouAre,Just The Way You Are" font-size="43.5" fill="#525252" transform="matrix(1.00, 0.00, -0.00, -1.00, 637.3, 716.4)">e</text><text xml:space="preserve" font-family="JustTheWayYouAre,Just The Way You Are" font-size="43.5" fill="#525252" transform="matrix(1.00, 0.00, -0.00, -1.00, 655.8, 716.4)">t</text><text xml:space="preserve" font-family="JustTheWayYouAre,Just The Way You Are" font-size="43.5" fill="#525252" transform="matrix(1.00, 0.00, -0.00, -1.00, 673.6, 716.4)"> </text><text xml:space="preserve" font-family="JustTheWayYouAre,Just The Way You Are" font-size="43.5" fill="#525252" transform="matrix(1.00, 0.00, -0.00, -1.00, 695.4, 716.4)">u</text><text xml:space="preserve" font-family="JustTheWayYouAre,Just The Way You Are" font-size="43.5" fill="#525252" transform="matrix(1.00, 0.00, -0.00, -1.00, 715.6, 716.4)">p</text><text xml:space="preserve" font-family="JustTheWayYouAre,Just The Way You Are" font-size="43.5" fill="#525252" transform="matrix(1.00, 0.00, -0.00, -1.00, 738.4, 716.4)"> </text><text xml:space="preserve" font-family="JustTheWayYouAre,Just The Way You Are" font-size="43.5" fill="#525252" transform="matrix(1.00, 0.00, -0.00, -1.00, 760.1, 716.4)">f</text><text xml:space="preserve" font-family="JustTheWayYouAre,Just The Way You Are" font-size="43.5" fill="#525252" transform="matrix(1.00, 0.00, -0.00, -1.00, 777.2, 716.4)">o</text><text xml:space="preserve" font-family="JustTheWayYouAre,Just The Way You Are" font-size="43.5" fill="#525252" transform="matrix(1.00, 0.00, -0.00, -1.00, 800.8, 716.4)">r</text><text xml:space="preserve" font-family="JustTheWayYouAre,Just The Way You Are" font-size="43.5" fill="#525252" transform="matrix(1.00, 0.00, -0.00, -1.00, 818.0, 716.4)"> </text><text xml:space="preserve" font-family="JustTheWayYouAre,Just The Way You Are" font-size="43.5" fill="#525252" transform="matrix(1.00, 0.00, -0.00, -1.00, 839.7, 716.4)">c</text><text xml:space="preserve" font-family="JustTheWayYouAre,Just The Way You Are" font-size="43.5" fill="#525252" transform="matrix(1.00, 0.00, -0.00, -1.00, 857.2, 716.4)">o</text><text xml:space="preserve" font-family="JustTheWayYouAre,Just The Way You Are" font-size="43.5" fill="#525252" transform="matrix(1.00, 0.00, -0.00, -1.00, 880.9, 716.4)">d</text><text xml:space="preserve" font-family="JustTheWayYouAre,Just The Way You Are" font-size="43.5" fill="#525252" transform="matrix(1.00, 0.00, -0.00, -1.00, 899.5, 716.4)">i</text><text xml:space="preserve" font-family="JustTheWayYouAre,Just The Way You Are" font-size="43.5" fill="#525252" transform="matrix(1.00, 0.00, -0.00, -1.00, 905.1, 716.4)">n</text><text xml:space="preserve" font-family="JustTheWayYouAre,Just The Way You Are" font-size="43.5" fill="#525252" transform="matrix(1.00, 0.00, -0.00, -1.00, 927.0, 716.4)">g</text><text xml:space="preserve" font-family="JustTheWayYouAre,Just The Way You Are" font-size="43.5" fill="#525252" transform="matrix(1.00, 0.00, -0.00, -1.00, 946.5, 716.4)"> </text><text xml:space="preserve" font-family="JustTheWayYouAre,Just The Way You Are" font-size="35.7" fill="#525252" transform="matrix(1.00, 0.00, -0.00, -1.00, 285.0, 597.7)">•</text><text xml:space="preserve" font-family="JustTheWayYouAre,Just The Way You Are" font-size="43.5" fill="#525252" transform="matrix(1.00, 0.00, -0.00, -1.00, 323.8, 595.3)">2</text><text xml:space="preserve" font-family="JustTheWayYouAre,Just The Way You Are" font-size="43.5" fill="#525252" transform="matrix(1.00, 0.00, -0.00, -1.00, 348.7, 595.3)">p</text><text xml:space="preserve" font-family="JustTheWayYouAre,Just The Way You Are" font-size="43.5" fill="#525252" transform="matrix(1.00, 0.00, -0.00, -1.00, 371.5, 595.3)">m</text><text xml:space="preserve" font-family="JustTheWayYouAre,Just The Way You Are" font-size="43.5" fill="#525252" transform="matrix(1.00, 0.00, -0.00, -1.00, 403.4, 595.3)">:</text><text xml:space="preserve" font-family="JustTheWayYouAre,Just The Way You Are" font-size="43.5" fill="#525252" transform="matrix(1.00, 0.00, -0.00, -1.00, 410.2, 595.3)"> </text><text xml:space="preserve" font-family="JustTheWayYouAre,Just The Way You Are" font-size="43.5" fill="#525252" transform="matrix(1.00, 0.00, -0.00, -1.00, 432.0, 595.3)">B</text><text xml:space="preserve" font-family="JustTheWayYouAre,Just The Way You Are" font-size="43.5" fill="#525252" transform="matrix(1.00, 0.00, -0.00, -1.00, 457.1, 595.3)">e</text><text xml:space="preserve" font-family="JustTheWayYouAre,Just The Way You Are" font-size="43.5" fill="#525252" transform="matrix(1.00, 0.00, -0.00, -1.00, 475.6, 595.3)">g</text><text xml:space="preserve" font-family="JustTheWayYouAre,Just The Way You Are" font-size="43.5" fill="#525252" transform="matrix(1.00, 0.00, -0.00, -1.00, 495.0, 595.3)">i</text><text xml:space="preserve" font-family="JustTheWayYouAre,Just The Way You Are" font-size="43.5" fill="#525252" transform="matrix(1.00, 0.00, -0.00, -1.00, 500.6, 595.3)">n</text><text xml:space="preserve" font-family="JustTheWayYouAre,Just The Way You Are" font-size="43.5" fill="#525252" transform="matrix(1.00, 0.00, -0.00, -1.00, 522.5, 595.3)">n</text><text xml:space="preserve" font-family="JustTheWayYouAre,Just The Way You Are" font-size="43.5" fill="#525252" transform="matrix(1.00, 0.00, -0.00, -1.00, 544.5, 595.3)">e</text><text xml:space="preserve" font-family="JustTheWayYouAre,Just The Way You Are" font-size="43.5" fill="#525252" transform="matrix(1.00, 0.00, -0.00, -1.00, 562.9, 595.3)">r</text><text xml:space="preserve" font-family="JustTheWayYouAre,Just The Way You Are" font-size="43.5" fill="#525252" transform="matrix(1.00, 0.00, -0.00, -1.00, 580.1, 595.3)">:</text><text xml:space="preserve" font-family="JustTheWayYouAre,Just The Way You Are" font-size="43.5" fill="#525252" transform="matrix(1.00, 0.00, -0.00, -1.00, 586.9, 595.3)"> </text><text xml:space="preserve" font-family="JustTheWayYouAre,Just The Way You Are" font-size="43.5" fill="#525252" transform="matrix(1.00, 0.00, -0.00, -1.00, 608.7, 595.3)">I</text><text xml:space="preserve" font-family="JustTheWayYouAre,Just The Way You Are" font-size="43.5" fill="#525252" transform="matrix(1.00, 0.00, -0.00, -1.00, 613.3, 595.3)">n</text><text xml:space="preserve" font-family="JustTheWayYouAre,Just The Way You Are" font-size="43.5" fill="#525252" transform="matrix(1.00, 0.00, -0.00, -1.00, 635.2, 595.3)">t</text><text xml:space="preserve" font-family="JustTheWayYouAre,Just The Way You Are" font-size="43.5" fill="#525252" transform="matrix(1.00, 0.00, -0.00, -1.00, 653.0, 595.3)">r</text><text xml:space="preserve" font-family="JustTheWayYouAre,Just The Way You Are" font-size="43.5" fill="#525252" transform="matrix(1.00, 0.00, -0.00, -1.00, 670.2, 595.3)">o</text><text xml:space="preserve" font-family="JustTheWayYouAre,Just The Way You Are" font-size="43.5" fill="#525252" transform="matrix(1.00, 0.00, -0.00, -1.00, 693.8, 595.3)"> </text><text xml:space="preserve" font-family="JustTheWayYouAre,Just The Way You Are" font-size="43.5" fill="#525252" transform="matrix(1.00, 0.00, -0.00, -1.00, 715.6, 595.3)">t</text><text xml:space="preserve" font-family="JustTheWayYouAre,Just The Way You Are" font-size="43.5" fill="#525252" transform="matrix(1.00, 0.00, -0.00, -1.00, 733.4, 595.3)">o</text><text xml:space="preserve" font-family="JustTheWayYouAre,Just The Way You Are" font-size="43.5" fill="#525252" transform="matrix(1.00, 0.00, -0.00, -1.00, 757.1, 595.3)"> </text><text xml:space="preserve" font-family="JustTheWayYouAre,Just The Way You Are" font-size="43.5" fill="#525252" transform="matrix(1.00, 0.00, -0.00, -1.00, 778.8, 595.3)">c</text><text xml:space="preserve" font-family="JustTheWayYouAre,Just The Way You Are" font-size="43.5" fill="#525252" transform="matrix(1.00, 0.00, -0.00, -1.00, 796.3, 595.3)">o</text><text xml:space="preserve" font-family="JustTheWayYouAre,Just The Way You Are" font-size="43.5" fill="#525252" transform="matrix(1.00, 0.00, -0.00, -1.00, 819.9, 595.3)">d</text><text xml:space="preserve" font-family="JustTheWayYouAre,Just The Way You Are" font-size="43.5" fill="#525252" transform="matrix(1.00, 0.00, -0.00, -1.00, 838.6, 595.3)">i</text><text xml:space="preserve" font-family="JustTheWayYouAre,Just The Way You Are" font-size="43.5" fill="#525252" transform="matrix(1.00, 0.00, -0.00, -1.00, 844.2, 595.3)">n</text><text xml:space="preserve" font-family="JustTheWayYouAre,Just The Way You Are" font-size="43.5" fill="#525252" transform="matrix(1.00, 0.00, -0.00, -1.00, 866.1, 595.3)">g</text><text xml:space="preserve" font-family="JustTheWayYouAre,Just The Way You Are" font-size="43.5" fill="#525252" transform="matrix(1.00, 0.00, -0.00, -1.00, 885.6, 595.3)"> </text><text xml:space="preserve" font-family="JustTheWayYouAre,Just The Way You Are" font-size="35.7" fill="#525252" transform="matrix(1.00, 0.00, -0.00, -1.00, 285.0, 476.7)">•</text><text xml:space="preserve" font-family="JustTheWayYouAre,Just The Way You Are" font-size="43.5" fill="#525252" transform="matrix(1.00, 0.00, -0.00, -1.00, 323.8, 474.3)">3</text><text xml:space="preserve" font-family="JustTheWayYouAre,Just The Way You Are" font-size="43.5" fill="#525252" transform="matrix(1.00, 0.00, -0.00, -1.00, 345.1, 474.3)">:</text><text xml:space="preserve" font-family="JustTheWayYouAre,Just The Way You Are" font-size="43.5" fill="#525252" transform="matrix(1.00, 0.00, -0.00, -1.00, 351.9, 474.3)">3</text><text xml:space="preserve" font-family="JustTheWayYouAre,Just The Way You Are" font-size="43.5" fill="#525252" transform="matrix(1.00, 0.00, -0.00, -1.00, 373.1, 474.3)">0</text><text xml:space="preserve" font-family="JustTheWayYouAre,Just The Way You Are" font-size="43.5" fill="#525252" transform="matrix(1.00, 0.00, -0.00, -1.00, 392.8, 474.3)">p</text><text xml:space="preserve" font-family="JustTheWayYouAre,Just The Way You Are" font-size="43.5" fill="#525252" transform="matrix(1.00, 0.00, -0.00, -1.00, 415.6, 474.3)">m</text><text xml:space="preserve" font-family="JustTheWayYouAre,Just The Way You Are" font-size="43.5" fill="#525252" transform="matrix(1.00, 0.00, -0.00, -1.00, 447.5, 474.3)">:</text><text xml:space="preserve" font-family="JustTheWayYouAre,Just The Way You Are" font-size="43.5" fill="#525252" transform="matrix(1.00, 0.00, -0.00, -1.00, 454.4, 474.3)"> </text><text xml:space="preserve" font-family="JustTheWayYouAre,Just The Way You Are" font-size="43.5" fill="#525252" transform="matrix(1.00, 0.00, -0.00, -1.00, 476.1, 474.3)">I</text><text xml:space="preserve" font-family="JustTheWayYouAre,Just The Way You Are" font-size="43.5" fill="#525252" transform="matrix(1.00, 0.00, -0.00, -1.00, 480.7, 474.3)">n</text><text xml:space="preserve" font-family="JustTheWayYouAre,Just The Way You Are" font-size="43.5" fill="#525252" transform="matrix(1.00, 0.00, -0.00, -1.00, 502.7, 474.3)">t</text><text xml:space="preserve" font-family="JustTheWayYouAre,Just The Way You Are" font-size="43.5" fill="#525252" transform="matrix(1.00, 0.00, -0.00, -1.00, 520.5, 474.3)">r</text><text xml:space="preserve" font-family="JustTheWayYouAre,Just The Way You Are" font-size="43.5" fill="#525252" transform="matrix(1.00, 0.00, -0.00, -1.00, 537.6, 474.3)">o</text><text xml:space="preserve" font-family="JustTheWayYouAre,Just The Way You Are" font-size="43.5" fill="#525252" transform="matrix(1.00, 0.00, -0.00, -1.00, 561.3, 474.3)"> </text><text xml:space="preserve" font-family="JustTheWayYouAre,Just The Way You Are" font-size="43.5" fill="#525252" transform="matrix(1.00, 0.00, -0.00, -1.00, 583.0, 474.3)">t</text><text xml:space="preserve" font-family="JustTheWayYouAre,Just The Way You Are" font-size="43.5" fill="#525252" transform="matrix(1.00, 0.00, -0.00, -1.00, 600.9, 474.3)">o</text><text xml:space="preserve" font-family="JustTheWayYouAre,Just The Way You Are" font-size="43.5" fill="#525252" transform="matrix(1.00, 0.00, -0.00, -1.00, 624.5, 474.3)"> </text><text xml:space="preserve" font-family="JustTheWayYouAre,Just The Way You Are" font-size="43.5" fill="#525252" transform="matrix(1.00, 0.00, -0.00, -1.00, 646.3, 474.3)">G</text><text xml:space="preserve" font-family="JustTheWayYouAre,Just The Way You Are" font-size="43.5" fill="#525252" transform="matrix(1.00, 0.00, -0.00, -1.00, 676.1, 474.3)">i</text><text xml:space="preserve" font-family="JustTheWayYouAre,Just The Way You Are" font-size="43.5" fill="#525252" transform="matrix(1.00, 0.00, -0.00, -1.00, 681.7, 474.3)">t</text><text xml:space="preserve" font-family="JustTheWayYouAre,Just The Way You Are" font-size="43.5" fill="#525252" transform="matrix(1.00, 0.00, -0.00, -1.00, 699.5, 474.3)"> </text><text xml:space="preserve" font-family="JustTheWayYouAre,Just The Way You Are" font-size="35.7" fill="#525252" transform="matrix(1.00, 0.00, -0.00, -1.00, 285.0, 355.6)">•</text><text xml:space="preserve" font-family="JustTheWayYouAre,Just The Way You Are" font-size="43.5" fill="#525252" transform="matrix(1.00, 0.00, -0.00, -1.00, 323.8, 353.2)">4</text><text xml:space="preserve" font-family="JustTheWayYouAre,Just The Way You Are" font-size="43.5" fill="#525252" transform="matrix(1.00, 0.00, -0.00, -1.00, 352.1, 353.2)">p</text><text xml:space="preserve" font-family="JustTheWayYouAre,Just The Way You Are" font-size="43.5" fill="#525252" transform="matrix(1.00, 0.00, -0.00, -1.00, 374.9, 353.2)">m</text><text xml:space="preserve" font-family="JustTheWayYouAre,Just The Way You Are" font-size="43.5" fill="#525252" transform="matrix(1.00, 0.00, -0.00, -1.00, 406.8, 353.2)">:</text><text xml:space="preserve" font-family="JustTheWayYouAre,Just The Way You Are" font-size="43.5" fill="#525252" transform="matrix(1.00, 0.00, -0.00, -1.00, 413.6, 353.2)"> </text><text xml:space="preserve" font-family="JustTheWayYouAre,Just The Way You Are" font-size="43.5" fill="#525252" transform="matrix(1.00, 0.00, -0.00, -1.00, 435.4, 353.2)">B</text><text xml:space="preserve" font-family="JustTheWayYouAre,Just The Way You Are" font-size="43.5" fill="#525252" transform="matrix(1.00, 0.00, -0.00, -1.00, 460.5, 353.2)">e</text><text xml:space="preserve" font-family="JustTheWayYouAre,Just The Way You Are" font-size="43.5" fill="#525252" transform="matrix(1.00, 0.00, -0.00, -1.00, 479.0, 353.2)">g</text><text xml:space="preserve" font-family="JustTheWayYouAre,Just The Way You Are" font-size="43.5" fill="#525252" transform="matrix(1.00, 0.00, -0.00, -1.00, 498.4, 353.2)">i</text><text xml:space="preserve" font-family="JustTheWayYouAre,Just The Way You Are" font-size="43.5" fill="#525252" transform="matrix(1.00, 0.00, -0.00, -1.00, 504.0, 353.2)">n</text><text xml:space="preserve" font-family="JustTheWayYouAre,Just The Way You Are" font-size="43.5" fill="#525252" transform="matrix(1.00, 0.00, -0.00, -1.00, 525.9, 353.2)">n</text><text xml:space="preserve" font-family="JustTheWayYouAre,Just The Way You Are" font-size="43.5" fill="#525252" transform="matrix(1.00, 0.00, -0.00, -1.00, 547.9, 353.2)">e</text><text xml:space="preserve" font-family="JustTheWayYouAre,Just The Way You Are" font-size="43.5" fill="#525252" transform="matrix(1.00, 0.00, -0.00, -1.00, 566.3, 353.2)">r</text><text xml:space="preserve" font-family="JustTheWayYouAre,Just The Way You Are" font-size="43.5" fill="#525252" transform="matrix(1.00, 0.00, -0.00, -1.00, 583.5, 353.2)"> </text><text xml:space="preserve" font-family="JustTheWayYouAre,Just The Way You Are" font-size="43.5" fill="#525252" transform="matrix(1.00, 0.00, -0.00, -1.00, 605.3, 353.2)">P</text><text xml:space="preserve" font-family="JustTheWayYouAre,Just The Way You Are" font-size="43.5" fill="#525252" transform="matrix(1.00, 0.00, -0.00, -1.00, 633.6, 353.2)">H</text><text xml:space="preserve" font-family="JustTheWayYouAre,Just The Way You Are" font-size="43.5" fill="#525252" transform="matrix(1.00, 0.00, -0.00, -1.00, 658.2, 353.2)">P</text><text xml:space="preserve" font-family="JustTheWayYouAre,Just The Way You Are" font-size="43.5" fill="#525252" transform="matrix(1.00, 0.00, -0.00, -1.00, 686.6, 353.2)"> </text><text xml:space="preserve" font-family="JustTheWayYouAre,Just The Way You Are" font-size="43.5" fill="#525252" transform="matrix(1.00, 0.00, -0.00, -1.00, 708.4, 353.2)">W</text><text xml:space="preserve" font-family="JustTheWayYouAre,Just The Way You Are" font-size="43.5" fill="#525252" transform="matrix(1.00, 0.00, -0.00, -1.00, 747.3, 353.2)">o</text><text xml:space="preserve" font-family="JustTheWayYouAre,Just The Way You Are" font-size="43.5" fill="#525252" transform="matrix(1.00, 0.00, -0.00, -1.00, 770.9, 353.2)">r</text><text xml:space="preserve" font-family="JustTheWayYouAre,Just The Way You Are" font-size="43.5" fill="#525252" transform="matrix(1.00, 0.00, -0.00, -1.00, 788.1, 353.2)">k</text><text xml:space="preserve" font-family="JustTheWayYouAre,Just The Way You Are" font-size="43.5" fill="#525252" transform="matrix(1.00, 0.00, -0.00, -1.00, 816.9, 353.2)">s</text><text xml:space="preserve" font-family="JustTheWayYouAre,Just The Way You Are" font-size="43.5" fill="#525252" transform="matrix(1.00, 0.00, -0.00, -1.00, 841.7, 353.2)">h</text><text xml:space="preserve" font-family="JustTheWayYouAre,Just The Way You Are" font-size="43.5" fill="#525252" transform="matrix(1.00, 0.00, -0.00, -1.00, 862.5, 353.2)">o</text><text xml:space="preserve" font-family="JustTheWayYouAre,Just The Way You Are" font-size="43.5" fill="#525252" transform="matrix(1.00, 0.00, -0.00, -1.00, 886.1, 353.2)">p</text><text xml:space="preserve" font-family="JustTheWayYouAre,Just The Way You Are" font-size="43.5" fill="#525252" transform="matrix(1.00, 0.00, -0.00, -1.00, 908.9, 353.2)"> </text><text xml:space="preserve" font-family="JustTheWayYouAre,Just The Way You Are" font-size="35.7" fill="#525252" transform="matrix(1.00, 0.00, -0.00, -1.00, 285.0, 234.6)">•</text><text xml:space="preserve" font-family="JustTheWayYouAre,Just The Way You Are" font-size="43.5" fill="#525252" transform="matrix(1.00, 0.00, -0.00, -1.00, 323.8, 232.2)">5</text><text xml:space="preserve" font-family="JustTheWayYouAre,Just The Way You Are" font-size="43.5" fill="#525252" transform="matrix(1.00, 0.00, -0.00, -1.00, 345.5, 232.2)">p</text><text xml:space="preserve" font-family="JustTheWayYouAre,Just The Way You Are" font-size="43.5" fill="#525252" transform="matrix(1.00, 0.00, -0.00, -1.00, 368.3, 232.2)">m</text><text xml:space="preserve" font-family="JustTheWayYouAre,Just The Way You Are" font-size="43.5" fill="#525252" transform="matrix(1.00, 0.00, -0.00, -1.00, 400.3, 232.2)">:</text><text xml:space="preserve" font-family="JustTheWayYouAre,Just The Way You Are" font-size="43.5" fill="#525252" transform="matrix(1.00, 0.00, -0.00, -1.00, 407.1, 232.2)"> </text><text xml:space="preserve" font-family="JustTheWayYouAre,Just The Way You Are" font-size="43.5" fill="#525252" transform="matrix(1.00, 0.00, -0.00, -1.00, 428.9, 232.2)">S</text><text xml:space="preserve" font-family="JustTheWayYouAre,Just The Way You Are" font-size="43.5" fill="#525252" transform="matrix(1.00, 0.00, -0.00, -1.00, 464.8, 232.2)">p</text><text xml:space="preserve" font-family="JustTheWayYouAre,Just The Way You Are" font-size="43.5" fill="#525252" transform="matrix(1.00, 0.00, -0.00, -1.00, 487.6, 232.2)">l</text><text xml:space="preserve" font-family="JustTheWayYouAre,Just The Way You Are" font-size="43.5" fill="#525252" transform="matrix(1.00, 0.00, -0.00, -1.00, 493.2, 232.2)">u</text><text xml:space="preserve" font-family="JustTheWayYouAre,Just The Way You Are" font-size="43.5" fill="#525252" transform="matrix(1.00, 0.00, -0.00, -1.00, 513.4, 232.2)">n</text><text xml:space="preserve" font-family="JustTheWayYouAre,Just The Way You Are" font-size="43.5" fill="#525252" transform="matrix(1.00, 0.00, -0.00, -1.00, 535.3, 232.2)">k</text><text xml:space="preserve" font-family="JustTheWayYouAre,Just The Way You Are" font-size="43.5" fill="#525252" transform="matrix(1.00, 0.00, -0.00, -1.00, 564.1, 232.2)">:</text><text xml:space="preserve" font-family="JustTheWayYouAre,Just The Way You Are" font-size="43.5" fill="#525252" transform="matrix(1.00, 0.00, -0.00, -1.00, 571.0, 232.2)"> </text><text xml:space="preserve" font-family="JustTheWayYouAre,Just The Way You Are" font-size="43.5" fill="#525252" transform="matrix(1.00, 0.00, -0.00, -1.00, 592.7, 232.2)">M</text><text xml:space="preserve" font-family="JustTheWayYouAre,Just The Way You Are" font-size="43.5" fill="#525252" transform="matrix(1.00, 0.00, -0.00, -1.00, 626.6, 232.2)">a</text><text xml:space="preserve" font-family="JustTheWayYouAre,Just The Way You Are" font-size="43.5" fill="#525252" transform="matrix(1.00, 0.00, -0.00, -1.00, 646.9, 232.2)">k</text><text xml:space="preserve" font-family="JustTheWayYouAre,Just The Way You Are" font-size="43.5" fill="#525252" transform="matrix(1.00, 0.00, -0.00, -1.00, 675.8, 232.2)">e</text><text xml:space="preserve" font-family="JustTheWayYouAre,Just The Way You Are" font-size="43.5" fill="#525252" transform="matrix(1.00, 0.00, -0.00, -1.00, 694.2, 232.2)"> </text><text xml:space="preserve" font-family="JustTheWayYouAre,Just The Way You Are" font-size="43.5" fill="#525252" transform="matrix(1.00, 0.00, -0.00, -1.00, 716.0, 232.2)">y</text><text xml:space="preserve" font-family="JustTheWayYouAre,Just The Way You Are" font-size="43.5" fill="#525252" transform="matrix(1.00, 0.00, -0.00, -1.00, 736.2, 232.2)">o</text><text xml:space="preserve" font-family="JustTheWayYouAre,Just The Way You Are" font-size="43.5" fill="#525252" transform="matrix(1.00, 0.00, -0.00, -1.00, 759.9, 232.2)">u</text><text xml:space="preserve" font-family="JustTheWayYouAre,Just The Way You Are" font-size="43.5" fill="#525252" transform="matrix(1.00, 0.00, -0.00, -1.00, 780.1, 232.2)">r</text><text xml:space="preserve" font-family="JustTheWayYouAre,Just The Way You Are" font-size="43.5" fill="#525252" transform="matrix(1.00, 0.00, -0.00, -1.00, 797.2, 232.2)"> </text><text xml:space="preserve" font-family="JustTheWayYouAre,Just The Way You Are" font-size="43.5" fill="#525252" transform="matrix(1.00, 0.00, -0.00, -1.00, 819.0, 232.2)">g</text><text xml:space="preserve" font-family="JustTheWayYouAre,Just The Way You Are" font-size="43.5" fill="#525252" transform="matrix(1.00, 0.00, -0.00, -1.00, 838.5, 232.2)">a</text><text xml:space="preserve" font-family="JustTheWayYouAre,Just The Way You Are" font-size="43.5" fill="#525252" transform="matrix(1.00, 0.00, -0.00, -1.00, 858.8, 232.2)">m</text><text xml:space="preserve" font-family="JustTheWayYouAre,Just The Way You Are" font-size="43.5" fill="#525252" transform="matrix(1.00, 0.00, -0.00, -1.00, 890.7, 232.2)">e</text><text xml:space="preserve" font-family="JustTheWayYouAre,Just The Way You Are" font-size="43.5" fill="#525252" transform="matrix(1.00, 0.00, -0.00, -1.00, 909.2, 232.2)"> </text><text xml:space="preserve" font-family="JustTheWayYouAre,Just The Way You Are" font-size="43.5" fill="#525252" transform="matrix(1.00, 0.00, -0.00, -1.00, 930.9, 232.2)">b</text><text xml:space="preserve" font-family="JustTheWayYouAre,Just The Way You Are" font-size="43.5" fill="#525252" transform="matrix(1.00, 0.00, -0.00, -1.00, 952.5, 232.2)">e</text><text xml:space="preserve" font-family="JustTheWayYouAre,Just The Way You Are" font-size="43.5" fill="#525252" transform="matrix(1.00, 0.00, -0.00, -1.00, 970.9, 232.2)">t</text><text xml:space="preserve" font-family="JustTheWayYouAre,Just The Way You Are" font-size="43.5" fill="#525252" transform="matrix(1.00, 0.00, -0.00, -1.00, 988.7, 232.2)">t</text><text xml:space="preserve" font-family="JustTheWayYouAre,Just The Way You Are" font-size="43.5" fill="#525252" transform="matrix(1.00, 0.00, -0.00, -1.00, 1006.6, 232.2)">e</text><text xml:space="preserve" font-family="JustTheWayYouAre,Just The Way You Are" font-size="43.5" fill="#525252" transform="matrix(1.00, 0.00, -0.00, -1.00, 1025.0, 232.2)">r</text><text xml:space="preserve" font-family="JustTheWayYouAre,Just The Way You Are" font-size="43.5" fill="#525252" transform="matrix(1.00, 0.00, -0.00, -1.00, 1042.2, 232.2)"> </text><text xml:space="preserve" font-family="JustTheWayYouAre,Just The Way You Are" font-size="43.5" fill="#525252" transform="matrix(1.00, 0.00, -0.00, -1.00, 1064.0, 232.2)">w</text><text xml:space="preserve" font-family="JustTheWayYouAre,Just The Way You Are" font-size="43.5" fill="#525252" transform="matrix(1.00, 0.00, -0.00, -1.00, 1097.0, 232.2)">i</text><text xml:space="preserve" font-family="JustTheWayYouAre,Just The Way You Are" font-size="43.5" fill="#525252" transform="matrix(1.00, 0.00, -0.00, -1.00, 1102.5, 232.2)">t</text><text xml:space="preserve" font-family="JustTheWayYouAre,Just The Way You Are" font-size="43.5" fill="#525252" transform="matrix(1.00, 0.00, -0.00, -1.00, 1120.3, 232.2)">h</text><text xml:space="preserve" font-family="JustTheWayYouAre,Just The Way You Are" font-size="43.5" fill="#525252" transform="matrix(1.00, 0.00, -0.00, -1.00, 1141.1, 232.2)"> </text><text xml:space="preserve" font-family="JustTheWayYouAre,Just The Way You Are" font-size="43.5" fill="#525252" transform="matrix(1.00, 0.00, -0.00, -1.00, 1162.8, 232.2)">d</text><text xml:space="preserve" font-family="JustTheWayYouAre,Just The Way You Are" font-size="43.5" fill="#525252" transform="matrix(1.00, 0.00, -0.00, -1.00, 1181.5, 232.2)">a</text><text xml:space="preserve" font-family="JustTheWayYouAre,Just The Way You Are" font-size="43.5" fill="#525252" transform="matrix(1.00, 0.00, -0.00, -1.00, 1201.8, 232.2)">t</text><text xml:space="preserve" font-family="JustTheWayYouAre,Just The Way You Are" font-size="43.5" fill="#525252" transform="matrix(1.00, 0.00, -0.00, -1.00, 1219.6, 232.2)">a</text><text xml:space="preserve" font-family="JustTheWayYouAre,Just The Way You Are" font-size="43.5" fill="#525252" transform="matrix(1.00, 0.00, -0.00, -1.00, 1240.0, 232.2)"> </text><text xml:space="preserve" font-family="JustTheWayYouAre,Just The Way You Are" font-size="35.7" fill="#525252" transform="matrix(1.00, 0.00, -0.00, -1.00, 285.0, 113.5)">•</text><text xml:space="preserve" font-family="JustTheWayYouAre,Just The Way You Are" font-size="43.5" fill="#525252" transform="matrix(1.00, 0.00, -0.00, -1.00, 323.8, 111.1)">6</text><text xml:space="preserve" font-family="JustTheWayYouAre,Just The Way You Are" font-size="43.5" fill="#525252" transform="matrix(1.00, 0.00, -0.00, -1.00, 342.5, 111.1)">p</text><text xml:space="preserve" font-family="JustTheWayYouAre,Just The Way You Are" font-size="43.5" fill="#525252" transform="matrix(1.00, 0.00, -0.00, -1.00, 365.3, 111.1)">m</text><text xml:space="preserve" font-family="JustTheWayYouAre,Just The Way You Are" font-size="43.5" fill="#525252" transform="matrix(1.00, 0.00, -0.00, -1.00, 397.2, 111.1)">:</text><text xml:space="preserve" font-family="JustTheWayYouAre,Just The Way You Are" font-size="43.5" fill="#525252" transform="matrix(1.00, 0.00, -0.00, -1.00, 404.0, 111.1)"> </text><text xml:space="preserve" font-family="JustTheWayYouAre,Just The Way You Are" font-size="43.5" fill="#525252" transform="matrix(1.00, 0.00, -0.00, -1.00, 425.8, 111.1)">J</text><text xml:space="preserve" font-family="JustTheWayYouAre,Just The Way You Are" font-size="43.5" fill="#525252" transform="matrix(1.00, 0.00, -0.00, -1.00, 444.5, 111.1)">a</text><text xml:space="preserve" font-family="JustTheWayYouAre,Just The Way You Are" font-size="43.5" fill="#525252" transform="matrix(1.00, 0.00, -0.00, -1.00, 464.8, 111.1)">v</text><text xml:space="preserve" font-family="JustTheWayYouAre,Just The Way You Are" font-size="43.5" fill="#525252" transform="matrix(1.00, 0.00, -0.00, -1.00, 484.3, 111.1)">a</text><text xml:space="preserve" font-family="JustTheWayYouAre,Just The Way You Are" font-size="43.5" fill="#525252" transform="matrix(1.00, 0.00, -0.00, -1.00, 504.6, 111.1)">S</text><text xml:space="preserve" font-family="JustTheWayYouAre,Just The Way You Are" font-size="43.5" fill="#525252" transform="matrix(1.00, 0.00, -0.00, -1.00, 540.6, 111.1)">c</text><text xml:space="preserve" font-family="JustTheWayYouAre,Just The Way You Are" font-size="43.5" fill="#525252" transform="matrix(1.00, 0.00, -0.00, -1.00, 558.0, 111.1)">r</text><text xml:space="preserve" font-family="JustTheWayYouAre,Just The Way You Are" font-size="43.5" fill="#525252" transform="matrix(1.00, 0.00, -0.00, -1.00, 575.2, 111.1)">i</text><text xml:space="preserve" font-family="JustTheWayYouAre,Just The Way You Are" font-size="43.5" fill="#525252" transform="matrix(1.00, 0.00, -0.00, -1.00, 580.7, 111.1)">p</text><text xml:space="preserve" font-family="JustTheWayYouAre,Just The Way You Are" font-size="43.5" fill="#525252" transform="matrix(1.00, 0.00, -0.00, -1.00, 603.5, 111.1)">t</text><text xml:space="preserve" font-family="JustTheWayYouAre,Just The Way You Are" font-size="43.5" fill="#525252" transform="matrix(1.00, 0.00, -0.00, -1.00, 621.3, 111.1)"> </text><text xml:space="preserve" font-family="JustTheWayYouAre,Just The Way You Are" font-size="43.5" fill="#525252" transform="matrix(1.00, 0.00, -0.00, -1.00, 643.1, 111.1)">W</text><text xml:space="preserve" font-family="JustTheWayYouAre,Just The Way You Are" font-size="43.5" fill="#525252" transform="matrix(1.00, 0.00, -0.00, -1.00, 682.0, 111.1)">o</text><text xml:space="preserve" font-family="JustTheWayYouAre,Just The Way You Are" font-size="43.5" fill="#525252" transform="matrix(1.00, 0.00, -0.00, -1.00, 705.7, 111.1)">r</text><text xml:space="preserve" font-family="JustTheWayYouAre,Just The Way You Are" font-size="43.5" fill="#525252" transform="matrix(1.00, 0.00, -0.00, -1.00, 722.8, 111.1)">k</text><text xml:space="preserve" font-family="JustTheWayYouAre,Just The Way You Are" font-size="43.5" fill="#525252" transform="matrix(1.00, 0.00, -0.00, -1.00, 751.6, 111.1)">s</text><text xml:space="preserve" font-family="JustTheWayYouAre,Just The Way You Are" font-size="43.5" fill="#525252" transform="matrix(1.00, 0.00, -0.00, -1.00, 776.5, 111.1)">h</text><text xml:space="preserve" font-family="JustTheWayYouAre,Just The Way You Are" font-size="43.5" fill="#525252" transform="matrix(1.00, 0.00, -0.00, -1.00, 797.2, 111.1)">o</text><text xml:space="preserve" font-family="JustTheWayYouAre,Just The Way You Are" font-size="43.5" fill="#525252" transform="matrix(1.00, 0.00, -0.00, -1.00, 820.9, 111.1)">p</text><text xml:space="preserve" font-family="JustTheWayYouAre,Just The Way You Are" font-size="43.5" fill="#525252" transform="matrix(1.00, 0.00, -0.00, -1.00, 843.7, 111.1)"> </text><text xml:space="preserve" font-family="JustTheWayYouAre,Just The Way You Are" font-size="43.5" fill="#525252" transform="matrix(1.00, 0.00, -0.00, -1.00, 865.4, 111.1)">w</text><text xml:space="preserve" font-family="JustTheWayYouAre,Just The Way You Are" font-size="43.5" fill="#525252" transform="matrix(1.00, 0.00, -0.00, -1.00, 898.4, 111.1)">i</text><text xml:space="preserve" font-family="JustTheWayYouAre,Just The Way You Are" font-size="43.5" fill="#525252" transform="matrix(1.00, 0.00, -0.00, -1.00, 904.0, 111.1)">t</text><text xml:space="preserve" font-family="JustTheWayYouAre,Just The Way You Are" font-size="43.5" fill="#525252" transform="matrix(1.00, 0.00, -0.00, -1.00, 921.8, 111.1)">h</text><text xml:space="preserve" font-family="JustTheWayYouAre,Just The Way You Are" font-size="43.5" fill="#525252" transform="matrix(1.00, 0.00, -0.00, -1.00, 942.5, 111.1)"> </text><text xml:space="preserve" font-family="JustTheWayYouAre,Just The Way You Are" font-size="43.5" fill="#525252" transform="matrix(1.00, 0.00, -0.00, -1.00, 964.3, 111.1)">M</text><text xml:space="preserve" font-family="JustTheWayYouAre,Just The Way You Are" font-size="43.5" fill="#525252" transform="matrix(1.00, 0.00, -0.00, -1.00, 998.2, 111.1)">a</text><text xml:space="preserve" font-family="JustTheWayYouAre,Just The Way You Are" font-size="43.5" fill="#525252" transform="matrix(1.00, 0.00, -0.00, -1.00, 1018.5, 111.1)">x</text><text xml:space="preserve" font-family="JustTheWayYouAre,Just The Way You Are" font-size="43.5" fill="#525252" transform="matrix(1.00, 0.00, -0.00, -1.00, 1045.4, 111.1)"> </text><text xml:space="preserve" font-family="JustTheWayYouAre,Just The Way You Are" font-size="43.5" fill="#525252" transform="matrix(1.00, 0.00, -0.00, -1.00, 1067.1, 111.1)">I</text><text xml:space="preserve" font-family="JustTheWayYouAre,Just The Way You Are" font-size="43.5" fill="#525252" transform="matrix(1.00, 0.00, -0.00, -1.00, 1071.7, 111.1)">z</text><text xml:space="preserve" font-family="JustTheWayYouAre,Just The Way You Are" font-size="43.5" fill="#525252" transform="matrix(1.00, 0.00, -0.00, -1.00, 1097.1, 111.1)">,</text><text xml:space="preserve" font-family="JustTheWayYouAre,Just The Way You Are" font-size="43.5" fill="#525252" transform="matrix(1.00, 0.00, -0.00, -1.00, 1105.7, 111.1)"> </text><text xml:space="preserve" font-family="JustTheWayYouAre,Just The Way You Are" font-size="43.5" fill="#525252" transform="matrix(1.00, 0.00, -0.00, -1.00, 1127.4, 111.1)">c</text><text xml:space="preserve" font-family="JustTheWayYouAre,Just The Way You Are" font-size="43.5" fill="#525252" transform="matrix(1.00, 0.00, -0.00, -1.00, 1144.9, 111.1)">o</text><text xml:space="preserve" font-family="JustTheWayYouAre,Just The Way You Are" font-size="43.5" fill="#525252" transform="matrix(1.00, 0.00, -0.00, -1.00, 1168.6, 111.1)">f</text><text xml:space="preserve" font-family="JustTheWayYouAre,Just The Way You Are" font-size="43.5" fill="#525252" transform="matrix(1.00, 0.00, -0.00, -1.00, 1185.6, 111.1)">o</text><text xml:space="preserve" font-family="JustTheWayYouAre,Just The Way You Are" font-size="43.5" fill="#525252" transform="matrix(1.00, 0.00, -0.00, -1.00, 1209.3, 111.1)">u</text><text xml:space="preserve" font-family="JustTheWayYouAre,Just The Way You Are" font-size="43.5" fill="#525252" transform="matrix(1.00, 0.00, -0.00, -1.00, 1229.5, 111.1)">n</text><text xml:space="preserve" font-family="JustTheWayYouAre,Just The Way You Are" font-size="43.5" fill="#525252" transform="matrix(1.00, 0.00, -0.00, -1.00, 1251.4, 111.1)">d</text><text xml:space="preserve" font-family="JustTheWayYouAre,Just The Way You Are" font-size="43.5" fill="#525252" transform="matrix(1.00, 0.00, -0.00, -1.00, 1270.1, 111.1)">e</text><text xml:space="preserve" font-family="JustTheWayYouAre,Just The Way You Are" font-size="43.5" fill="#525252" transform="matrix(1.00, 0.00, -0.00, -1.00, 1288.6, 111.1)">r</text><text xml:space="preserve" font-family="JustTheWayYouAre,Just The Way You Are" font-size="43.5" fill="#525252" transform="matrix(1.00, 0.00, -0.00, -1.00, 1305.7, 111.1)"> </text><text xml:space="preserve" font-family="JustTheWayYouAre,Just The Way You Are" font-size="43.5" fill="#525252" transform="matrix(1.00, 0.00, -0.00, -1.00, 1327.5, 111.1)">o</text><text xml:space="preserve" font-family="JustTheWayYouAre,Just The Way You Are" font-size="43.5" fill="#525252" transform="matrix(1.00, 0.00, -0.00, -1.00, 1351.1, 111.1)">f</text><text xml:space="preserve" font-family="JustTheWayYouAre,Just The Way You Are" font-size="43.5" fill="#525252" transform="matrix(1.00, 0.00, -0.00, -1.00, 1368.2, 111.1)"> </text><text xml:space="preserve" font-family="JustTheWayYouAre,Just The Way You Are" font-size="43.5" fill="#525252" transform="matrix(1.00, 0.00, -0.00, -1.00, 1389.9, 111.1)">R</text><text xml:space="preserve" font-family="JustTheWayYouAre,Just The Way You Are" font-size="43.5" fill="#525252" transform="matrix(1.00, 0.00, -0.00, -1.00, 1418.4, 111.1)">o</text><text xml:space="preserve" font-family="JustTheWayYouAre,Just The Way You Are" font-size="43.5" fill="#525252" transform="matrix(1.00, 0.00, -0.00, -1.00, 1442.0, 111.1)">o</text><text xml:space="preserve" font-family="JustTheWayYouAre,Just The Way You Are" font-size="43.5" fill="#525252" transform="matrix(1.00, 0.00, -0.00, -1.00, 1465.7, 111.1)">m</text><text xml:space="preserve" font-family="JustTheWayYouAre,Just The Way You Are" font-size="43.5" fill="#525252" transform="matrix(1.00, 0.00, -0.00, -1.00, 1497.6, 111.1)">S</text><text xml:space="preserve" font-family="JustTheWayYouAre,Just The Way You Are" font-size="43.5" fill="#525252" transform="matrix(1.00, 0.00, -0.00, -1.00, 1533.6, 111.1)">t</text><text xml:space="preserve" font-family="JustTheWayYouAre,Just The Way You Are" font-size="43.5" fill="#525252" transform="matrix(1.00, 0.00, -0.00, -1.00, 1551.4, 111.1)">o</text><text xml:space="preserve" font-family="JustTheWayYouAre,Just The Way You Are" font-size="43.5" fill="#525252" transform="matrix(1.00, 0.00, -0.00, -1.00, 1575.1, 111.1)">r</text><text xml:space="preserve" font-family="JustTheWayYouAre,Just The Way You Are" font-size="43.5" fill="#525252" transform="matrix(1.00, 0.00, -0.00, -1.00, 1592.2, 111.1)">m</text></g></svg>